<svg width="20" height="20" viewBox="0 0 20 20" fill="none" xmlns="http://www.w3.org/2000/svg">
<path fill-rule="evenodd" clip-rule="evenodd" d="M10.5299 0.870061C10.237 0.577167 9.76217 0.577167 9.46928 0.870061C9.17639 1.16295 9.17639 1.63783 9.46928 1.93072L16.7888 9.2502H1.40039C0.986177 9.2502 0.650391 9.58598 0.650391 10.0002C0.650391 10.4144 0.986177 10.7502 1.40039 10.7502H16.7884L9.46928 18.0693C9.17639 18.3622 9.17639 18.837 9.46928 19.1299C9.76217 19.4228 10.237 19.4228 10.5299 19.1299L19.1119 10.5479C19.2582 10.4111 19.3496 10.2163 19.3496 10.0002C19.3496 9.78787 19.2614 9.59616 19.1196 9.45971L10.5299 0.870061Z" fill="#1A1B2D"/>
</svg>
