<svg width="68" height="70" viewBox="0 0 68 70" fill="none" xmlns="http://www.w3.org/2000/svg">
<rect y="10" width="60" height="60" rx="30" fill="#F2E9FC"/>
<path fill-rule="evenodd" clip-rule="evenodd" d="M34.7347 27.563C34.9518 27.6296 35.1717 27.6895 35.3914 27.7494C35.8911 27.8855 36.3898 28.0214 36.854 28.2349C37.5724 28.5637 38.1371 28.5173 38.8018 28.0777C39.9241 27.3414 41.0963 26.6802 42.29 26.0619C42.9334 25.7296 43.2836 25.3186 43.3372 24.5823C43.5338 21.8732 45.4423 20.0612 48.037 20.0755C50.5924 20.0898 52.4687 21.8983 52.6617 24.5752C52.7154 25.3043 53.0406 25.7403 53.6803 26.0834C54.8883 26.7267 56.0749 27.4165 57.2257 28.1527C57.844 28.5494 58.3944 28.5995 59.0413 28.2778C61.4859 27.0662 64.1628 27.8454 65.4244 30.1184C66.636 32.3021 65.8855 34.9754 63.6374 36.3979C63.0156 36.791 62.7976 37.2878 62.8547 38.0241C62.9369 39.157 63.0191 40.3114 62.9012 41.4372C62.794 42.4522 63.0549 43.0741 63.9305 43.6245C65.6925 44.736 66.4001 46.9161 65.7675 48.8818C65.1349 50.8511 63.2979 52.2056 61.2286 52.1127C60.5245 52.0805 59.799 51.8625 59.1485 51.5766C58.2765 51.1978 58.0013 50.2828 58.3837 49.493C58.7518 48.7353 59.5667 48.4601 60.4351 48.7531C60.8176 48.8818 61.2464 49.0212 61.6217 48.9604C62.2829 48.8568 62.7296 48.41 62.8369 47.7131C62.9477 46.9876 62.6439 46.4515 62.0256 46.087C60.7103 45.315 59.9312 44.1785 59.7561 42.6595C59.7314 42.4375 59.7448 42.2098 59.7581 41.9818C59.766 41.8464 59.774 41.711 59.774 41.5766C59.7761 41.2615 59.7885 40.9451 59.801 40.6288V40.6287C59.8294 39.9045 59.8578 39.1808 59.7632 38.4744C59.4845 36.3943 60.3351 34.9361 61.9469 33.746C62.3437 33.4529 62.7332 32.9454 62.819 32.4772C63.0299 31.3371 61.8326 30.5115 60.7068 30.9297C60.5304 30.9957 60.3557 31.0686 60.1811 31.1414C59.779 31.3091 59.3778 31.4765 58.9591 31.5587C57.6725 31.8125 56.5252 31.4372 55.4352 30.7081C54.4309 30.0326 53.3765 29.4143 52.29 28.8782C50.6031 28.0384 49.6667 26.7446 49.5524 24.8611C49.488 23.796 48.9269 23.1885 48.0013 23.1849C47.072 23.1813 46.5073 23.7817 46.4394 24.8468C46.3144 26.7624 45.3458 28.0562 43.6196 28.8854C42.5509 29.3965 41.5145 29.9969 40.5388 30.6688C38.9305 31.7732 37.3008 31.934 35.5602 31.0619C34.6382 30.6009 33.784 30.8082 33.3337 31.598C32.9155 32.3379 33.1585 33.2063 33.9841 33.7317C35.6603 34.8075 36.3286 36.3264 36.1821 38.2957C36.0999 39.4 36.1035 40.5187 36.1785 41.6266C36.3072 43.5387 35.6424 45.0148 34.027 46.0584C33.1764 46.6088 32.9155 47.4129 33.3086 48.1706C33.7018 48.9318 34.5202 49.1785 35.4459 48.8211C36.4502 48.4315 37.3151 48.7246 37.6617 49.5752C38.012 50.4329 37.6189 51.2514 36.636 51.7053C34.4738 52.7024 31.8862 51.9018 30.671 49.8575C29.4309 47.7703 29.9384 45.0648 31.9612 43.7138C32.9155 43.0777 33.1335 42.3593 33.0191 41.2942C32.9119 40.2721 32.9691 39.2249 33.0549 38.1956C33.1299 37.3271 32.9048 36.7303 32.1328 36.2442C30.3851 35.1506 29.6096 32.949 30.1993 31.0083C30.8068 29.0355 32.6189 27.6953 34.7347 27.563ZM48.1908 46.9091C44.1522 46.9234 41.1214 43.932 41.1179 39.9255C41.1107 35.9155 44.1164 32.9134 48.1586 32.8955C51.9256 32.8776 55.1064 36.105 55.0886 39.9327C55.0707 43.7497 51.9613 46.8948 48.1908 46.9091ZM48.0514 43.7819C50.1708 43.8212 51.9184 42.12 51.9578 39.9756C51.9971 37.8455 50.2994 36.0692 48.1836 36.0228C45.9713 35.9763 44.2558 37.631 44.2272 39.8433C44.1951 42.0842 45.8034 43.739 48.0514 43.7819ZM58.0335 55.9369C57.0899 52.1592 53.4552 48.6031 48.1943 48.8676H47.4259C42.2829 48.8998 38.1264 52.9491 37.9691 58.0849C37.937 59.1392 38.5231 59.8755 39.4416 59.9219C40.3351 59.9684 40.9606 59.3394 41.0821 58.3208C41.0958 58.209 41.1087 58.0967 41.1216 57.9841C41.1824 57.4526 41.2438 56.9166 41.4002 56.4123C42.2222 53.7675 44.6382 52.0163 47.4259 51.9841C51.5002 51.9412 53.8662 53.2815 54.8669 56.2729C55.0456 56.8117 55.1185 57.3865 55.191 57.9581C55.2098 58.1068 55.2287 58.2554 55.2493 58.403C55.3816 59.3608 56.0177 59.9684 56.8862 59.9219C57.7511 59.8755 58.3944 59.1893 58.348 58.2386C58.3122 57.4666 58.2193 56.6839 58.0335 55.9369Z" fill="#9748E7"/>
</svg>
