<svg width="68" height="70" viewBox="0 0 68 70" fill="none" xmlns="http://www.w3.org/2000/svg">
<rect y="10" width="60" height="60" rx="30" fill="#E6E6FC"/>
<path fill-rule="evenodd" clip-rule="evenodd" d="M34.6772 51.9582H34.6774H34.6777C35.1106 51.9574 35.5557 51.9566 36.0192 51.9566C36.0192 52.3305 36.0254 52.6944 36.0315 53.0512C36.0452 53.8492 36.0583 54.6118 35.9995 55.3712C35.7967 58.269 37.9619 60.0221 40.5915 59.9959C45.9975 59.9399 51.4069 59.9506 56.8148 59.9612H56.815H56.8153H56.816H56.8167C58.9791 59.9655 61.1413 59.9698 63.303 59.9698C66.3775 59.9698 67.967 58.3999 67.967 55.3451C67.967 53.2239 67.9623 51.1026 67.9577 48.9814C67.9458 43.5605 67.9339 38.1396 67.9997 32.7186C68.0259 29.9843 66.312 27.793 63.3096 28.0089C62.563 28.0625 61.8133 28.0489 61.0418 28.035C60.6845 28.0285 60.3224 28.0219 59.9539 28.0219C59.9539 27.5666 59.9546 27.128 59.9554 26.7001V26.6996V26.6991V26.6986V26.6982C59.9568 25.873 59.9582 25.0879 59.9539 24.2999C59.9342 21.6703 58.2989 20.0088 55.6889 20.0088C47.8786 20.0023 40.0748 20.0023 32.271 20.0088C29.7264 20.0154 28.0126 21.703 28.0126 24.2411C27.9929 32.071 27.9995 39.9075 28.0126 47.744C28.0191 50.2952 29.7002 51.937 32.271 51.9566C33.0577 51.9609 33.8445 51.9596 34.6759 51.9582H34.6761H34.6772ZM38.7027 41.7412C38.7092 41.6295 38.7159 41.5141 38.7207 41.3924H65.3112V42.3017C65.3112 43.7463 65.3119 45.1909 65.3127 46.6355L65.3127 46.6582C65.3141 49.5625 65.3156 52.4669 65.3112 55.3712C65.3112 56.8823 64.8926 57.3075 63.3815 57.3075H40.5785C39.1067 57.3075 38.6815 56.8823 38.6815 55.4432V42.2886C38.6815 42.1079 38.6918 41.9297 38.7027 41.7412ZM36.0192 48.1823V49.2878C35.621 49.2878 35.2298 49.2938 34.8444 49.2997L34.8442 49.2997C33.8367 49.3152 32.8687 49.3301 31.9177 49.2355C31.4991 49.1962 31.0608 48.6533 30.773 48.2412C30.6431 48.0564 30.6582 47.7571 30.6726 47.4716C30.677 47.3832 30.6814 47.2961 30.6814 47.2142V24.7578C30.6814 23.0505 31.0543 22.6646 32.7223 22.6646H55.2637C56.9645 22.6646 57.3046 23.0113 57.3046 24.7251C57.3046 25.7194 57.2981 26.7137 57.2915 27.708C57.2915 27.7443 57.2816 27.7806 57.2632 27.8476L57.2632 27.8477L57.2631 27.8479C57.2517 27.8895 57.2371 27.9429 57.2196 28.0154H56.2384C54.6998 28.0154 53.1612 28.0228 51.6228 28.0302C47.9549 28.0479 44.288 28.0656 40.6242 27.9827C37.8769 27.9238 35.9145 29.775 35.9864 32.6597C36.0737 36.2882 36.0546 39.923 36.0354 43.5575V43.5577V43.5579C36.0273 45.0996 36.0192 46.6412 36.0192 48.1823ZM65.3047 32.6467V38.5993H38.6815V34.2166C38.6815 34.0143 38.6804 33.8126 38.6793 33.6113C38.6767 33.1094 38.674 32.6098 38.688 32.1103C38.7142 31.2076 39.2048 30.7104 40.1075 30.6843C40.7211 30.6659 41.3346 30.6701 41.9482 30.6742C42.2112 30.6759 42.4741 30.6777 42.7371 30.6777H63.3423C64.9122 30.6777 65.3047 31.0702 65.3047 32.6467ZM43.9472 35.9864C44.1657 35.9847 44.3838 35.9829 44.6014 35.9829C44.8516 35.9829 45.1025 35.9851 45.3539 35.9873H45.354H45.3542C45.8586 35.9916 46.3649 35.996 46.8713 35.9829C47.6497 35.9567 48.1468 35.4596 48.1861 34.7466C48.2188 33.9944 47.7151 33.3664 46.9367 33.3468C45.4256 33.3075 43.9081 33.3075 42.397 33.3468C41.612 33.3598 41.1018 33.9747 41.128 34.7204C41.1476 35.4334 41.6513 35.9437 42.4166 35.9764C42.9251 35.9947 43.4368 35.9906 43.9472 35.9864H43.9472H43.9472ZM57.2328 33.3334C57.9589 33.3465 58.541 33.9549 58.528 34.694C58.5149 35.4397 57.9327 36.0023 57.187 35.9892C56.4478 35.9761 55.8656 35.3809 55.8853 34.6482C55.8984 33.9156 56.5132 33.3204 57.2328 33.3334ZM62.8582 34.6285C62.832 33.9155 62.191 33.3072 61.4845 33.3268C60.765 33.3464 60.1828 33.9678 60.2024 34.7005C60.222 35.4527 60.7977 36.0022 61.5565 35.9826C62.2891 35.9629 62.8778 35.3481 62.8582 34.6285Z" fill="#8A8AFF"/>
</svg>
