<svg width="68" height="70" viewBox="0 0 68 70" fill="none" xmlns="http://www.w3.org/2000/svg">
<rect y="10" width="60" height="60" rx="30" fill="#FFF0C6"/>
<path fill-rule="evenodd" clip-rule="evenodd" d="M61.7598 22.8504H61.7599C62.3793 22.8485 62.9849 22.8467 63.5906 22.854C66.1475 22.8825 67.9764 24.6936 67.9925 27.2469C68.0082 30.0553 68.0031 32.8622 67.998 35.6702V35.6709L67.996 36.7948C67.9943 37.91 67.4465 38.5666 66.5561 38.5594C65.664 38.5505 65.1447 37.901 65.1376 36.7734C65.1338 36.2066 65.1345 35.6407 65.1352 35.0566C65.1355 34.8187 65.1358 34.5777 65.1358 34.3324H30.8646V35.2496V55.1482C30.8646 56.6737 31.3053 57.1198 32.8149 57.1216C35.3936 57.1228 37.9716 57.1224 40.5499 57.122H40.5501C41.8394 57.1218 43.1287 57.1216 44.4182 57.1216C44.486 57.1216 44.5538 57.1207 44.6218 57.1198C44.7919 57.1177 44.9624 57.1155 45.1319 57.1269C45.9759 57.184 46.5576 57.7586 46.5683 58.5348C46.579 59.3074 45.9991 59.9676 45.1694 59.9711C44.2911 59.9743 43.4128 59.979 42.5344 59.9838H42.5342C38.9799 60.0029 35.4252 60.022 31.8727 59.939C29.6192 59.8855 28.0079 57.8996 28.0062 55.4997C27.9992 48.9493 27.9998 42.4021 28.0004 35.8549C28.0006 33.9842 28.0008 32.1136 28.0008 30.2428C28.0008 29.9392 27.9998 29.6357 27.9989 29.3322C27.9966 28.6241 27.9944 27.9164 28.0044 27.2095C28.0383 24.7097 29.8583 22.8915 32.3563 22.8558C32.9601 22.8473 33.5638 22.8495 34.1878 22.8518C34.4821 22.8529 34.7809 22.854 35.0863 22.854C35.1254 22.595 35.1306 22.3091 35.1357 22.022C35.1539 21.0134 35.1724 19.9883 36.6654 20.0508C38.0066 20.1071 38.0091 21.0847 38.0116 22.0477C38.0123 22.3057 38.0129 22.5626 38.0393 22.8005H46.4827C46.7931 20.4577 47.0768 19.9581 48.06 20.0027C49.0289 20.0473 49.3179 20.604 49.4732 22.7897H57.9486C57.9832 22.5468 57.9855 22.2767 57.9878 22.0035C57.9962 21.0347 58.0049 20.0264 59.451 20.0473C60.8526 20.067 60.8574 21.0686 60.8623 22.0698C60.8636 22.3368 60.8649 22.6039 60.8927 22.8522C61.1856 22.8522 61.4742 22.8513 61.7598 22.8504ZM30.8646 31.3526H65.1322C65.1322 30.9186 65.1337 30.4908 65.1352 30.0673V30.0669C65.1385 29.0924 65.1418 28.1407 65.1269 27.1881C65.1144 26.3601 64.663 25.8052 63.844 25.741C63.1715 25.6876 62.4939 25.6999 61.8063 25.7122C61.505 25.7177 61.2018 25.7231 60.8963 25.7231C60.8688 25.97 60.8668 26.2348 60.8649 26.4994C60.8575 27.5052 60.8501 28.5093 59.4403 28.5192C58.0211 28.5288 58.0059 27.5332 57.9914 26.5837C57.9872 26.3048 57.983 26.0299 57.9433 25.7856H49.4642C49.35 27.9446 49.0378 28.6137 48.0439 28.5495C46.5749 28.4543 46.5685 27.47 46.5621 26.4711C46.5604 26.2155 46.5588 25.9589 46.5326 25.716H42.3002H38.0018C38.0018 25.9003 38.0045 26.0718 38.007 26.2346L38.007 26.2347C38.0123 26.57 38.0169 26.8682 37.9965 27.1649C37.9412 27.9999 37.3309 28.5763 36.5566 28.5655C35.7822 28.5548 35.1969 27.9714 35.1505 27.1292C35.1333 26.8126 35.1373 26.4943 35.1414 26.1661V26.1661C35.1433 26.0189 35.1452 25.8697 35.1452 25.7178C34.8232 25.7178 34.515 25.7155 34.2162 25.7134C33.5562 25.7085 32.9424 25.704 32.3295 25.7249C31.4356 25.7553 30.8914 26.2941 30.8718 27.1916C30.853 28.1454 30.857 29.1001 30.8611 30.0783C30.8628 30.4981 30.8646 30.9223 30.8646 31.3526ZM67.9964 48.5948C67.9821 54.9059 62.8219 60.0125 56.4858 59.9822C50.2158 59.9519 45.1269 54.8095 45.1412 48.518C45.1555 42.2052 50.3139 37.102 56.6518 37.1324C62.9218 37.1609 68.0089 42.3015 67.9964 48.5948ZM56.5483 39.9926C51.8324 39.9998 47.9961 43.8539 48.0032 48.5751C48.0104 53.2893 51.868 57.1273 56.5893 57.1184C61.3052 57.1113 65.1433 53.2554 65.1344 48.5341C65.1255 43.82 61.2713 39.9855 56.5483 39.9926ZM56.5724 48.0646C56.2658 48.4734 55.9503 48.8941 55.6219 49.3313C55.4466 49.1346 55.284 48.947 55.1281 48.7672C54.7907 48.378 54.4855 48.0258 54.1535 47.6987C53.4255 46.9761 52.5547 46.9475 51.9588 47.5809C51.3878 48.1876 51.4431 49.0048 52.1336 49.715C52.9419 50.5465 53.7645 51.3619 54.5906 52.1755C55.5613 53.1301 56.3785 53.082 57.1903 52.0114C58.4804 50.3074 59.7615 48.5944 61.0391 46.8797C61.7528 45.9251 61.7189 45.0811 60.9659 44.5441C60.2379 44.0248 59.4546 44.2354 58.7677 45.1454C58.0523 46.0916 57.3405 47.0406 56.5724 48.0646Z" fill="#FDC936"/>
</svg>
