<svg width="69" height="70" viewBox="0 0 69 70" fill="none" xmlns="http://www.w3.org/2000/svg">
<rect y="10" width="60" height="60" rx="30" fill="#EEF9FF"/>
<path fill-rule="evenodd" clip-rule="evenodd" d="M42.6929 59.9994C44.4613 59.9992 46.2297 59.999 47.9982 59.999C49.338 59.999 50.6777 59.9992 52.0173 59.9994H52.0175H52.0178H52.018H52.0183H52.0185H52.0188C56.0367 60.0001 60.0538 60.0007 64.071 59.9954C66.6968 59.9918 68.0749 58.6012 68.0749 55.9736V24.0655C68.0749 21.379 66.7147 20.0045 64.0353 20.0027C53.3463 19.9991 42.6591 19.9991 31.9701 20.0027C29.2871 20.0045 27.9251 21.379 27.9251 24.0637V55.8148C27.9251 58.6673 29.2443 59.9972 32.0843 59.999C35.6195 60.0001 39.1554 59.9998 42.6917 59.9994H42.6919H42.6921H42.6923H42.6925H42.6927H42.6929ZM30.3043 32.0901C30.3098 31.999 30.3157 31.9022 30.3207 31.7966C42.1378 31.7966 53.8622 31.7966 65.7168 31.7931V32.6338C65.7168 35.2288 65.717 37.8236 65.7172 40.4183V40.4185V40.4186V40.4188V40.419V40.4192V40.4194C65.7176 45.6082 65.718 50.7968 65.7168 55.9861C65.7168 57.2642 65.3634 57.632 64.1031 57.632C53.3677 57.6355 42.6323 57.6355 31.8969 57.632C30.6652 57.632 30.285 57.2571 30.285 56.0647C30.2832 48.23 30.2832 40.3935 30.285 32.5571C30.285 32.4085 30.294 32.2592 30.3043 32.0901ZM65.7168 24.2886V29.3761H30.3028C30.3028 28.8714 30.3003 28.3685 30.2978 27.8671L30.2978 27.867C30.2901 26.347 30.2826 24.8406 30.3457 23.3372C30.3582 23.0141 30.8901 22.6482 31.2578 22.4286C31.4316 22.3233 31.681 22.3393 31.9252 22.355C32.0123 22.3606 32.0987 22.3661 32.1807 22.3661C42.7323 22.3643 53.282 22.3643 63.8318 22.3643C65.4669 22.3643 65.7168 22.6196 65.7168 24.2886ZM52.6602 36.7408C52.6801 36.6777 52.6985 36.6193 52.7161 36.5681C52.6572 35.8629 52.3466 35.4274 51.7326 35.3256C50.9882 35.2007 50.5973 35.647 50.3224 36.2914C48.928 39.5588 47.5269 42.8235 46.1256 46.0884C45.254 48.1193 44.3824 50.1503 43.5123 52.1821C43.1374 53.0567 43.3427 53.7386 44.0425 54.026C44.7029 54.2956 45.3045 53.9707 45.6705 53.1174C47.9464 47.8229 50.2188 42.5266 52.4876 37.2285C52.559 37.0621 52.6136 36.8887 52.6602 36.7408ZM36.9558 44.7063L38.0237 45.56L38.0247 45.5608C39.1815 46.4855 40.2909 47.3723 41.3971 48.2622C42.1486 48.8673 42.3128 49.5599 41.8577 50.1365C41.4042 50.7095 40.6866 50.7059 39.9316 50.1061C38.1358 48.6763 36.3418 47.2447 34.5549 45.8023C33.6392 45.0633 33.6338 44.3529 34.5407 43.621C36.3471 42.1626 38.1608 40.7131 39.978 39.2672C40.6902 38.7013 41.3971 38.7085 41.8469 39.2583C42.3146 39.8277 42.1575 40.5382 41.415 41.1362C40.508 41.8657 39.5997 42.5918 38.6738 43.332L38.6738 43.332L38.6737 43.332L38.6737 43.3321L38.6737 43.3321L38.6736 43.3321L38.6721 43.3334L38.6648 43.3391L38.6588 43.344L38.6583 43.3443L38.6516 43.3497C38.0939 43.7955 37.5299 44.2464 36.9558 44.7063ZM57.9354 43.8169L57.937 43.8182C58.3021 44.1098 58.6714 44.4047 59.046 44.7044C58.6162 45.0483 58.1923 45.3868 57.773 45.7215L57.7722 45.7222L57.765 45.7279L57.7632 45.7294L57.7608 45.7312C56.6326 46.6319 55.5377 47.5061 54.4512 48.3888C53.8157 48.9065 53.7175 49.6401 54.1674 50.1685C54.5958 50.6719 55.2902 50.713 55.9132 50.2203C57.7964 48.7333 59.6761 47.2392 61.5397 45.7273C62.3341 45.0846 62.3287 44.342 61.5504 43.6905C61.0004 43.2299 60.438 42.7843 59.8757 42.3388C59.6404 42.1525 59.4052 41.9661 59.1709 41.7787C58.0713 40.8986 56.9699 40.0186 55.8667 39.1439C55.3812 38.7601 54.7886 38.653 54.378 39.0993C54.0977 39.4045 53.9924 39.9668 54.0031 40.4077C54.0083 40.6551 54.3489 40.931 54.6022 41.1363L54.6261 41.1557C55.7095 42.0394 56.8021 42.9119 57.9346 43.8163L57.9354 43.8169ZM58.5748 27.0661C58.2412 27.0661 57.9076 27.0673 57.574 27.0684H57.5739C56.8117 27.0711 56.0497 27.0737 55.2885 27.0625C54.4121 27.05 53.9122 26.6198 53.8944 25.9147C53.8765 25.1757 54.3906 24.7152 55.3082 24.7098C57.5002 24.6973 59.6905 24.6973 61.8826 24.7098C62.759 24.7152 63.2589 25.1507 63.2767 25.8558C63.2946 26.5949 62.7805 27.0483 61.8629 27.0608C61.0279 27.0744 60.1928 27.0714 59.3577 27.0684C59.0968 27.0675 58.8358 27.0665 58.5748 27.0661ZM35.0493 25.8862C35.0493 25.2203 34.5138 24.7027 33.8479 24.7241C33.2142 24.7455 32.7251 25.2507 32.7233 25.8844C32.7233 26.5502 33.2588 27.0697 33.9247 27.0482C34.5602 27.0286 35.0493 26.5216 35.0493 25.8862ZM39.7529 25.9129C39.7386 26.577 39.1906 27.0857 38.5266 27.05C37.8947 27.0161 37.4145 26.4966 37.4288 25.8612C37.443 25.1971 37.9911 24.6884 38.6551 24.7241C39.287 24.758 39.7672 25.2774 39.7529 25.9129ZM43.2839 27.0503C43.9479 27.0574 44.4727 26.5272 44.4585 25.8614C44.4442 25.2259 43.9444 24.7332 43.3089 24.7261C42.643 24.7172 42.12 25.2473 42.1343 25.9132C42.1486 26.5487 42.6484 27.0431 43.2839 27.0503Z" fill="#24ABF5"/>
</svg>
