<svg width="68" height="70" viewBox="0 0 68 70" fill="none" xmlns="http://www.w3.org/2000/svg">
<rect y="10" width="60" height="60" rx="30" fill="#FFEDE8"/>
<path fill-rule="evenodd" clip-rule="evenodd" d="M28.0096 39.9995C28.0096 38.3442 28.0094 36.6888 28.0092 35.0334C28.0088 31.7227 28.0084 28.412 28.0096 25.1013C28.0131 21.8928 29.8832 20.0031 33.0595 20.0013C43.0202 19.9996 52.9792 19.9996 62.9399 20.0013C66.0805 20.0031 67.9863 21.8893 67.9881 25.0031C67.9934 34.9995 67.9916 44.9959 67.9881 54.9941C67.9863 58.1098 66.0787 59.9977 62.9399 59.9977C52.981 60.0013 43.0202 60.0013 33.0613 59.9977C29.8832 59.9959 28.0131 58.1062 28.0113 54.8978C28.0087 51.1747 28.009 47.4505 28.0093 43.7254L28.0096 39.9995ZM31.0913 33.3686V34.3339V54.8014C31.0913 56.4253 31.582 56.9178 33.2076 56.9178C43.0684 56.9195 52.9274 56.9195 62.7882 56.9178C64.4138 56.9178 64.9063 56.427 64.9063 54.8032C64.9081 47.9813 64.9081 41.1594 64.9046 34.3357C64.9046 34.1221 64.89 33.9084 64.8746 33.6812C64.8677 33.5801 64.8606 33.4763 64.8546 33.3686H31.0913ZM64.9081 30.1976C64.9081 29.6192 64.9083 29.0537 64.9085 28.4966V28.4881V28.4876V28.4871V28.4866V28.4861C64.9089 27.4006 64.9093 26.3473 64.9081 25.294C64.9063 23.5399 64.4495 23.0831 62.6936 23.0831H33.3058C33.2303 23.0831 33.1543 23.0812 33.0782 23.0794L33.0782 23.0794C32.8647 23.0742 32.6504 23.069 32.4439 23.1045C31.7033 23.233 31.1537 23.688 31.1287 24.4285C31.0841 25.7935 31.0923 27.1594 31.1007 28.5393V28.5393C31.104 29.0896 31.1073 29.6421 31.1073 30.1976H64.9081ZM39.7779 51.775C36.0895 51.7697 33.1381 48.795 33.1559 45.0995C33.172 41.4057 36.1448 38.4471 39.8279 38.4596C43.4967 38.4721 46.4714 41.4717 46.4642 45.1494C46.4535 48.8289 43.4771 51.7804 39.7779 51.775ZM39.794 48.688C41.8015 48.6898 43.3914 47.1052 43.3825 45.112C43.3754 43.1758 41.789 41.5681 39.8618 41.5431C37.874 41.5181 36.259 43.1009 36.2394 45.0941C36.2198 47.1105 37.7794 48.688 39.794 48.688ZM54.672 43.6192V43.6194V43.6196V43.6198V43.62C54.6732 44.1163 54.6743 44.6125 54.6743 45.1085C54.6749 45.6431 54.6738 46.1777 54.6727 46.7123C54.6704 47.8406 54.6681 48.9687 54.6815 50.096C54.6922 51.1256 55.2507 51.7359 56.1376 51.768C57.0601 51.8019 57.7346 51.1738 57.7436 50.1299C57.7703 46.8037 57.7703 43.4757 57.7453 40.1495C57.7364 39.1181 57.053 38.4436 56.1661 38.4615C55.2721 38.4793 54.6886 39.1431 54.6779 40.2138C54.6667 41.3485 54.6694 42.484 54.672 43.6192ZM62.6437 47.1534C62.6437 47.4506 62.6452 47.7476 62.6466 48.0446V48.0448V48.045V48.0451C62.65 48.7376 62.6534 49.4297 62.6384 50.1227C62.6169 51.1309 62.0441 51.7501 61.1626 51.7715C60.2419 51.793 59.5888 51.1577 59.5727 50.1192C59.5441 48.1723 59.5459 46.2237 59.5709 44.2769C59.5834 43.2491 60.2419 42.5585 61.1198 42.5567C62.0067 42.5549 62.6223 43.2366 62.6401 44.2805C62.6513 44.9456 62.6487 45.6116 62.646 46.2779V46.278V46.2782V46.2783L62.646 46.2811C62.6449 46.5718 62.6437 46.8626 62.6437 47.1534ZM52.617 48.8774C52.6142 48.6707 52.6115 48.4642 52.6115 48.2578C52.6115 48.2578 52.6121 48.2578 52.6129 48.2575L52.6139 48.257L52.6151 48.256V46.3378L52.6153 46.3003C52.6155 46.2497 52.6158 46.1983 52.6115 46.1468C52.5384 45.2457 51.9156 44.6211 51.0823 44.6176C50.2418 44.614 49.5727 45.2261 49.5477 46.1308C49.5102 47.5048 49.5102 48.8806 49.5459 50.2546C49.5691 51.1682 50.2115 51.766 51.0662 51.7714C51.921 51.7767 52.5562 51.1825 52.6044 50.2724C52.6291 49.8079 52.623 49.3425 52.617 48.8774V48.8774ZM35.6237 28.2526C35.4946 28.2443 35.364 28.2413 35.2334 28.2383H35.2334C34.9471 28.2318 34.6603 28.2254 34.3871 28.1616C33.5698 27.9743 33.1148 27.4371 33.1701 26.5771C33.2236 25.7223 33.7197 25.2244 34.5691 25.1656C35.2686 25.1174 35.9734 25.1263 36.6747 25.1531C37.6062 25.1888 38.2165 25.783 38.2397 26.6234C38.2629 27.4639 37.6847 28.1081 36.7746 28.2098C36.5145 28.2393 36.2501 28.2316 35.9861 28.2239C35.8663 28.2204 35.7465 28.2169 35.6272 28.2169C35.6255 28.2277 35.6237 28.2401 35.6237 28.2526ZM42.2664 25.1561C42.1474 25.1599 42.0285 25.1636 41.9103 25.1636C41.9103 25.1636 41.9103 25.1618 41.9085 25.1601C41.7789 25.1601 41.6491 25.1568 41.5195 25.1535C41.2331 25.1462 40.9472 25.139 40.6648 25.1672C39.9046 25.2421 39.4371 25.6847 39.33 26.4395C39.2194 27.2336 39.537 27.9438 40.315 28.0669C41.3036 28.2222 42.3493 28.2204 43.3396 28.0776C44.1159 27.9652 44.4674 27.2728 44.3692 26.4752C44.2765 25.7222 43.8107 25.2689 43.0577 25.1726C42.7977 25.1393 42.5318 25.1477 42.2664 25.1561Z" fill="#FF4E43"/>
</svg>
