<svg width="68" height="70" viewBox="0 0 68 70" fill="none" xmlns="http://www.w3.org/2000/svg">
<rect y="10" width="60" height="60" rx="30" fill="#FFEFFA"/>
<path d="M42.0826 50.4901C42.0826 49.7274 42.0826 49.0157 42.0826 48.2046C41.728 48.2046 41.4243 48.2046 41.1207 48.2046C38.102 48.2046 35.0809 48.2097 32.0623 48.202C29.3549 48.1969 28.0026 46.8246 28 44.1054C28 37.4145 28 30.7237 28 24.0329C28.0026 21.3826 29.3881 20.0026 32.0495 20C41.1334 20 50.2174 20 59.3038 20C61.9091 20 63.3048 21.3953 63.3074 23.9997C63.3099 27.0709 63.3074 30.1421 63.3074 33.2159C63.3074 33.4965 63.3074 33.777 63.3074 34.0908C63.8458 34.124 64.3102 34.1367 64.7695 34.1826C66.645 34.3688 67.954 35.7616 67.982 37.6747C68.0152 39.8863 67.9923 42.1004 67.9923 44.312C67.9923 48.2173 67.9948 52.1226 67.9923 56.0254C67.9897 58.5788 66.5837 59.992 64.0397 59.9971C61.2023 59.9996 58.3648 60.0022 55.5274 59.9971C53.0216 59.9945 51.5953 58.5762 51.5876 56.0892C51.585 55.0535 51.5876 54.0179 51.5876 52.893C51.2048 52.893 50.9012 52.893 50.5975 52.893C46.8747 52.893 43.1518 52.893 39.4315 52.893C39.2222 52.893 39.0155 52.9006 38.8063 52.8904C37.9413 52.8496 37.459 52.4109 37.4718 51.6915C37.4871 51.0054 37.9566 50.5743 38.7782 50.5488C39.6101 50.5233 40.4445 50.5437 41.2763 50.5386C41.5315 50.5335 41.7841 50.508 42.0826 50.4901ZM30.3475 41.0979C37.4743 41.0979 44.5067 41.0979 51.585 41.0979C51.585 40.0189 51.5799 39.0088 51.585 37.9961C51.5978 35.5907 52.9936 34.175 55.4125 34.1393C56.9742 34.1163 58.5332 34.1367 60.0948 34.1316C60.3679 34.1316 60.6409 34.1036 60.9548 34.0857C60.9548 30.6982 60.9548 27.3974 60.9548 24.0966C60.9548 22.6707 60.6358 22.3468 59.2247 22.3468C50.1714 22.3468 41.1181 22.3468 32.0648 22.3468C30.6869 22.3468 30.345 22.6809 30.345 24.0278C30.345 29.4381 30.345 34.8509 30.345 40.2613C30.3475 40.5214 30.3475 40.7791 30.3475 41.0979ZM53.9606 52.9032C57.8902 52.9032 61.7483 52.9032 65.5988 52.9032C65.5988 48.98 65.5988 45.1129 65.5988 41.2408C61.6947 41.2408 57.8392 41.2408 53.9606 41.2408C53.9606 45.1563 53.9606 49.0004 53.9606 52.9032ZM30.419 43.5518C30.197 45.4777 30.5134 45.8501 32.3021 45.8501C38.3853 45.8501 44.4684 45.8501 50.5516 45.8501C50.8782 45.8501 51.2023 45.8501 51.5417 45.8501C51.5417 45.016 51.5417 44.3018 51.5417 43.5518C44.4812 43.5518 37.4692 43.5518 30.419 43.5518ZM65.6447 55.3647C61.6922 55.3647 57.8315 55.3647 53.9377 55.3647C53.9377 55.7576 53.9224 56.0943 53.9402 56.431C53.9811 57.1631 54.3893 57.6324 55.1063 57.635C58.2296 57.6554 61.3528 57.6554 64.4735 57.635C65.1905 57.6299 65.5988 57.1631 65.6396 56.4284C65.66 56.0943 65.6447 55.7576 65.6447 55.3647ZM65.6422 38.7894C65.6422 38.3609 65.66 38.0267 65.6396 37.6926C65.5962 36.963 65.2033 36.5141 64.4608 36.509C61.3452 36.486 58.2296 36.486 55.114 36.509C54.3766 36.5141 53.9836 36.9656 53.9428 37.7002C53.9224 38.0522 53.9402 38.4094 53.9402 38.7894C57.8749 38.7894 61.7101 38.7894 65.6422 38.7894ZM51.5315 50.4926C51.5315 49.7223 51.5315 48.9902 51.5315 48.2632C50.7353 48.2632 49.9979 48.2632 49.2299 48.2632C49.2299 49.031 49.2299 49.7402 49.2299 50.4926C50.0234 50.4926 50.7609 50.4926 51.5315 50.4926ZM44.5373 48.2556C44.5373 49.0157 44.5373 49.7248 44.5373 50.4875C45.2977 50.4875 46.0071 50.4875 46.7701 50.4875C46.7701 49.7274 46.7701 49.0183 46.7701 48.2556C46.0097 48.2556 45.3003 48.2556 44.5373 48.2556Z" fill="#FF77D9"/>
</svg>
