<svg width="21" height="21" viewBox="0 0 21 21" fill="none" xmlns="http://www.w3.org/2000/svg">
<path d="M9.59478 3.42837C9.95471 2.66162 11.0453 2.66162 11.4052 3.42838L13.0545 6.9418C13.1961 7.24338 13.4785 7.45465 13.8078 7.50526L17.5777 8.08468C18.382 8.20829 18.7098 9.18948 18.1413 9.77168L15.3527 12.6277C15.1309 12.8549 15.0302 13.1739 15.0813 13.4873L15.7304 17.4672C15.8648 18.2911 14.9901 18.9073 14.2596 18.5033L10.9839 16.6919C10.6828 16.5254 10.3172 16.5254 10.0161 16.6919L6.74045 18.5033C6.00989 18.9073 5.13518 18.2911 5.26957 17.4672L5.91872 13.4873C5.96983 13.1739 5.86909 12.8549 5.64727 12.6277L2.85869 9.77168C2.29024 9.18948 2.61804 8.20829 3.42229 8.08468L7.19218 7.50526C7.52147 7.45465 7.80392 7.24338 7.94549 6.9418L9.59478 3.42837Z" fill="#9BB7F6"/>
</svg>
