<svg width="116" height="29" viewBox="0 0 116 29" fill="none" xmlns="http://www.w3.org/2000/svg">
<g clip-path="url(#clip0_211_250)">
<path d="M42.7737 19.0204H34.187L32.7793 22.3649H29.4269L36.7897 4.62842H40.1663L47.5339 22.3649H44.1573L42.7737 19.0204ZM38.478 8.35443L35.4303 15.9058H41.5305L38.478 8.35443Z" fill="white"/>
<path d="M52.057 4.65454V22.3701H49.2173V4.65454H52.057Z" fill="white"/>
<path d="M57.4993 17.2227C57.6879 18.7695 58.9312 19.8826 60.9485 19.8826C62.003 19.8826 63.3866 19.4541 64.0445 18.7172L65.8731 20.6665C64.654 22.0356 62.661 22.6941 60.9001 22.6941C56.9139 22.6941 54.5435 20.0342 54.5435 16.0312C54.5435 12.232 56.9381 9.49365 60.6872 9.49365C64.5573 9.49365 66.9761 12.0804 66.5262 17.2227H57.4993ZM63.7881 14.662C63.5994 13.042 62.4288 12.2268 60.784 12.2268C59.236 12.2268 57.9685 13.0368 57.5476 14.662H63.7881Z" fill="white"/>
<path d="M71.504 9.87513L71.7169 11.3175C72.607 9.77061 73.8067 9.5459 74.9774 9.5459C76.1723 9.5459 77.3236 10.0528 77.9573 10.7374L76.6657 13.4235C76.0803 12.8904 75.5385 12.6135 74.6001 12.6135C73.1004 12.6135 71.7169 13.4757 71.7169 15.7803V22.3701H68.853V9.87513H71.504Z" fill="white"/>
<path d="M83.6318 6.34766V9.896H86.8198V12.5559H83.6076V17.9542C83.6076 19.1457 84.2171 19.7258 85.1073 19.7258C85.5523 19.7258 86.0699 19.5742 86.4908 19.3443L87.289 21.9781C86.4666 22.3335 85.7894 22.485 84.9186 22.5112C82.4079 22.6104 80.768 21.0688 80.768 17.949V12.5612H78.6104V9.90122H80.768V6.68211L83.6318 6.34766Z" fill="white"/>
<path d="M92.3346 6.34759C92.3346 8.7567 88.958 8.7567 88.958 6.34759C88.9531 3.94371 92.3346 3.94371 92.3346 6.34759ZM89.2144 9.82277V22.3648H92.0782V9.82277H89.2144Z" fill="white"/>
<path d="M96.3449 22.3649V12.7598H94.1874V10.0476H96.3449V9.21145C96.3449 5.86691 98.4348 4.32007 100.757 4.32007C101.763 4.32007 102.822 4.67542 103.761 5.33388L102.706 7.63847C102.097 7.20995 101.536 6.98002 100.945 6.98002C99.9586 6.98002 99.2088 7.69073 99.2088 9.21145V10.0476H102.61V12.7598H99.2088V22.3649H96.3449Z" fill="white"/>
<path d="M116 9.8751L108.729 28.0923H105.585L107.955 22.161L103.335 9.86987H106.668L108.429 15.2682L109.532 18.7904L110.727 15.3413L112.836 9.86987H116V9.8751Z" fill="white"/>
<g opacity="0.6">
<path d="M14.8803 24.1049C14.8803 26.5297 13.0614 28.4999 10.8119 28.4999C8.56246 28.4999 6.74353 26.5297 6.74353 24.1049C6.74353 24.0109 6.74837 23.9168 6.75321 23.8228C9.45741 23.8228 12.1664 23.8228 14.8706 23.8228C14.8755 23.9116 14.8803 24.0057 14.8803 24.1049Z" fill="#14EFC5"/>
</g>
<path d="M21.4884 22.4902C21.2127 23.2898 20.4822 23.8176 19.5679 23.8176C18.0005 23.8176 16.4332 23.8176 14.8658 23.8176C12.1616 23.8176 9.45254 23.8176 6.74834 23.8176C5.18581 23.8176 3.62327 23.8176 2.06074 23.8176C1.12225 23.8176 0.425643 23.3212 0.130551 22.5112C-0.174215 21.6593 0.0386377 20.8493 0.783623 20.1177C2.42356 18.5082 3.23143 16.5067 3.24111 14.1132C3.24594 12.8225 3.21692 11.5212 3.28948 10.2357C3.53136 6.06024 7.14019 2.61641 11.0006 2.82545C11.1505 2.83067 11.2957 2.86203 11.4892 2.89338C9.22034 8.55818 12.9695 14.4529 18.1892 14.5418C18.5327 15.6862 18.7503 16.8411 19.2196 17.8602C19.6066 18.7015 20.2452 19.4279 20.8498 20.1282C21.5126 20.8807 21.7787 21.6646 21.4884 22.4902Z" fill="#14EFC5"/>
<path d="M12.9695 6.264C13.013 2.99786 15.456 0.452877 18.4891 0.499909C21.4497 0.546942 23.8008 3.21734 23.7524 6.48348C23.7089 9.63466 21.232 12.2214 18.3101 12.1744C15.3205 12.1274 12.9211 9.47266 12.9695 6.264Z" fill="white"/>
</g>
<defs>
<clipPath id="clip0_211_250">
<rect width="116" height="28" fill="white" transform="translate(0 0.5)"/>
</clipPath>
</defs>
</svg>
