<svg width="50" height="50" viewBox="0 0 50 50" fill="none" xmlns="http://www.w3.org/2000/svg">
<rect width="50" height="50" rx="25" fill="#E9EFFD"/>
<path fill-rule="evenodd" clip-rule="evenodd" d="M14.1056 22.8098C14.7373 23.4215 15.2095 24.0732 14.8637 25.0175C15.2028 25.9617 14.7373 26.6201 14.1056 27.2119C13.9448 27.3652 13.8029 27.5375 13.661 27.7098C13.5506 27.8438 13.4402 27.9779 13.3209 28.103C12.9885 28.4554 12.9419 28.8344 13.1082 29.28C13.6335 30.6964 14.3783 31.9798 15.3358 33.1501C15.655 33.5358 16.0274 33.6688 16.5128 33.5624C16.7428 33.5122 16.9739 33.4682 17.2047 33.4243C17.5545 33.3578 17.9039 33.2914 18.2484 33.2033C18.7272 33.0836 19.1195 33.1169 19.5251 33.4427C19.7164 33.5964 19.9393 33.71 20.163 33.8239C20.336 33.912 20.5094 34.0004 20.6689 34.1077C20.8617 34.2407 21.0612 34.4468 21.1477 34.6596C21.3522 35.1633 21.523 35.6783 21.6938 36.1932C21.7507 36.3648 21.8077 36.5365 21.8659 36.7077C22.0055 37.1266 22.2848 37.3594 22.717 37.4325C24.2332 37.6985 25.7559 37.6985 27.2787 37.4325C27.7309 37.3527 28.0169 37.12 28.1565 36.6811C28.2414 36.4152 28.3335 36.1517 28.4256 35.888C28.55 35.5319 28.6746 35.1755 28.7816 34.8125C28.8946 34.4202 29.1074 34.1808 29.4865 34.0146C29.7378 33.902 29.9743 33.7557 30.2115 33.6089C30.3948 33.4954 30.5785 33.3817 30.7698 33.2831C30.9494 33.19 31.1954 33.1235 31.3949 33.1568C32.0931 33.2631 32.7846 33.4094 33.4761 33.5557L33.4763 33.5557C33.9351 33.6555 34.3075 33.5757 34.6267 33.1967C35.6308 31.9997 36.4022 30.6698 36.9275 29.2002C37.0671 28.8145 37.0073 28.462 36.728 28.1495C36.5971 28.0037 36.4707 27.8534 36.3445 27.7032C36.131 27.4492 35.918 27.1957 35.684 26.9658C35.2119 26.507 34.9392 26.0083 35.0656 25.3167C35.1027 25.1126 35.0901 24.9003 35.0775 24.6877C35.0675 24.5193 35.0575 24.3509 35.0722 24.1863C35.0988 23.9469 35.172 23.6742 35.3183 23.488C35.7159 22.9741 36.153 22.4884 36.5881 22.0048C36.6259 21.9628 36.6637 21.9208 36.7014 21.8788C37.014 21.533 37.0605 21.1673 36.9076 20.7417C36.3822 19.3054 35.6242 18.0087 34.6533 16.8317C34.3408 16.4593 33.9817 16.3329 33.5162 16.4327C33.3233 16.4726 33.1298 16.5088 32.9362 16.545C32.549 16.6174 32.1619 16.6898 31.7806 16.7918C31.2885 16.9248 30.8829 16.8716 30.464 16.5391C30.2706 16.3866 30.0482 16.2737 29.8257 16.1607C29.6502 16.0716 29.4748 15.9826 29.3136 15.8741C29.1274 15.7477 28.9412 15.5549 28.8614 15.3554C28.6333 14.7796 28.4395 14.1891 28.2463 13.6007C28.2142 13.5028 28.1821 13.405 28.1499 13.3073C28.0036 12.8751 27.7176 12.6423 27.2654 12.5625C25.7626 12.3032 24.2598 12.3032 22.7503 12.5625C22.2781 12.649 21.9789 12.8884 21.8393 13.3472C21.7767 13.5454 21.7059 13.7405 21.6354 13.9349C21.5261 14.2363 21.4173 14.5362 21.3405 14.8434C21.1876 15.4618 20.8883 15.8874 20.2699 16.1201C20.0486 16.2017 19.8477 16.3354 19.646 16.4696C19.5023 16.5652 19.3581 16.6611 19.206 16.7386C19.0331 16.825 18.807 16.8782 18.6208 16.8516C18.0957 16.7682 17.5742 16.663 17.051 16.5575C16.8652 16.5201 16.6793 16.4826 16.4929 16.446C16.0806 16.3662 15.7148 16.4127 15.4223 16.7585C14.3849 17.9754 13.6069 19.332 13.0683 20.8348C12.9353 21.2072 12.9951 21.5463 13.2611 21.8456C13.3686 21.9656 13.4714 22.0893 13.5741 22.2129C13.7446 22.4182 13.9147 22.623 14.1056 22.8098ZM19.7978 25.0108C19.8111 22.1581 22.1385 19.8307 24.9912 19.8174C27.8573 19.8041 30.2179 22.1714 30.198 25.0308C30.1913 27.8835 27.8639 30.2109 25.0112 30.2242C22.1518 30.2375 19.7845 27.8702 19.7978 25.0108ZM21.5599 25.0043C21.5532 26.8928 23.1292 28.4688 25.0177 28.4621C26.893 28.4555 28.4424 26.9061 28.449 25.0309C28.4557 23.1424 26.8797 21.5664 24.9911 21.573C23.1159 21.5797 21.5665 23.1291 21.5599 25.0043Z" fill="#2563EB"/>
</svg>
