<svg width="50" height="50" viewBox="0 0 50 50" fill="none" xmlns="http://www.w3.org/2000/svg">
<rect width="50" height="50" rx="25" fill="#E9EFFD"/>
<path fill-rule="evenodd" clip-rule="evenodd" d="M24.9992 23.7894H14.5561C13.3991 23.7894 13.0059 23.3886 13.0059 22.2392V14.5487C13.0059 13.4446 13.4369 12.9985 14.5259 12.9985H35.4725C36.5539 12.9985 37.0001 13.4446 37.0001 14.5411V22.2922C37.0001 23.3735 36.5842 23.7894 35.5028 23.7894C33.1687 23.7945 30.8345 23.7928 28.5004 23.7911C27.3333 23.7903 26.1663 23.7894 24.9992 23.7894ZM19.0101 18.3902C19.0026 17.7247 18.443 17.2029 17.77 17.2181C17.1196 17.2408 16.5978 17.7852 16.6054 18.4204C16.613 19.0556 17.1574 19.5925 17.7926 19.6001C18.4581 19.6076 19.0177 19.0481 19.0101 18.3902ZM29.8161 26.2017H35.5481C36.5538 26.2017 36.9924 26.6403 36.9924 27.6384C37 30.2776 37 32.9167 36.9924 35.5634C36.9924 36.5162 36.5236 36.9926 35.5859 36.9926C31.7293 37.0002 27.8727 37.0002 24.0161 36.9926C23.0557 36.9926 22.6171 36.5389 22.6171 35.571C22.6095 32.9318 22.6095 30.2927 22.6171 27.646C22.6171 26.6025 23.0254 26.2017 24.0917 26.2017H29.8161ZM20.199 32.9609C20.1981 32.5181 20.1973 32.075 20.1973 31.6311C20.1973 31.178 20.1981 30.724 20.199 30.2694C20.2007 29.3586 20.2023 28.4456 20.1973 27.5325C20.1897 26.6478 19.7663 26.2092 18.8966 26.2016C17.3842 26.1941 15.8643 26.1941 14.3519 26.2016C13.4671 26.2092 13.0059 26.6629 13.0059 27.5628C12.9983 30.2397 12.9983 32.9091 13.0059 35.586C13.0059 36.501 13.4823 36.985 14.3821 36.9926C15.8567 37.0077 17.3389 37.0001 18.8135 36.9926C19.7436 36.9926 20.1897 36.5388 20.1973 35.6163C20.2023 34.7293 20.2007 33.8457 20.199 32.9609Z" fill="#2563EB"/>
</svg>
