<svg width="30" height="30" viewBox="0 0 30 30" fill="none" xmlns="http://www.w3.org/2000/svg">
<rect width="30" height="30" rx="15" fill="#E9EFFD"/>
<path d="M11.4267 23C11.4147 23 11.4027 23 11.3907 23C11.0306 23 10.6706 22.9007 10.3465 22.7394C10.0344 22.5781 9.74637 22.33 9.51833 22.0322L6.25364 17.6772C5.84555 17.1313 5.94157 16.362 6.45768 15.9402C6.98579 15.5183 7.72995 15.6176 8.13804 16.1635L11.4147 20.5185L21.8689 7.45352C22.289 6.92 23.0452 6.84556 23.5613 7.29222C24.0774 7.72648 24.1494 8.50815 23.7173 9.04167L13.2751 22.1067C13.0351 22.392 12.759 22.6154 12.4349 22.7767C12.1229 22.9256 11.7748 23 11.4267 23Z" fill="#2563EB"/>
</svg>
