<svg width="36" height="35" viewBox="0 0 36 35" fill="none" xmlns="http://www.w3.org/2000/svg">
<rect x="0.666656" width="35" height="35" rx="17.5" fill="#E9EFFD"/>
<path fill-rule="evenodd" clip-rule="evenodd" d="M26.8821 10.9421C26.5257 10.4269 26.1991 9.95475 25.8378 9.43408C22.8136 10.9209 20.4225 12.9466 19.3011 16.1227C18.3424 18.8431 18.4148 21.5128 20.3356 23.8713C21.5222 25.3292 23.1102 25.7813 24.9153 25.4124C26.6264 25.0615 27.9359 23.3251 27.9757 21.4693C28.0155 19.5376 26.7602 17.8736 24.8755 17.3816C23.9169 17.1284 22.9583 17.1356 21.9635 17.5444C22.1552 16.0359 22.7087 14.7734 23.5986 13.652C24.4957 12.527 25.6388 11.6986 26.9049 10.9751L26.8821 10.9421ZM11.5633 17.5624C12.0083 14.4369 13.8857 12.4581 16.512 10.9858C16.4258 10.8603 16.3399 10.7388 16.2556 10.6195C16.0531 10.333 15.8594 10.0589 15.6908 9.77036C15.5099 9.4665 15.3182 9.46288 15.0614 9.62928C14.7707 9.81778 14.4725 9.99772 14.1742 10.1777C13.5223 10.5712 12.8698 10.9649 12.294 11.4489C9.48327 13.8183 7.9133 16.7774 8.46677 20.554C8.79234 22.7606 9.82693 24.5513 12.0806 25.3146C14.3126 26.0742 16.4324 25.0613 17.2861 22.9053C18.1037 20.8434 17.2101 18.5608 15.1916 17.6456C14.0268 17.1174 12.8186 17.0451 11.5633 17.5624Z" fill="#2563EB"/>
</svg>
