<svg width="24" height="29" viewBox="0 0 24 29" fill="none" xmlns="http://www.w3.org/2000/svg">
<g opacity="0.6">
<path d="M14.8803 24.1049C14.8803 26.5297 13.0614 28.4999 10.8119 28.4999C8.56246 28.4999 6.74353 26.5297 6.74353 24.1049C6.74353 24.0109 6.74837 23.9168 6.75321 23.8228C9.45741 23.8228 12.1664 23.8228 14.8706 23.8228C14.8755 23.9116 14.8803 24.0057 14.8803 24.1049Z" fill="#14EFC5"/>
</g>
<path d="M21.4884 22.4902C21.2127 23.2898 20.4822 23.8176 19.5679 23.8176C18.0005 23.8176 16.4332 23.8176 14.8658 23.8176C12.1616 23.8176 9.45254 23.8176 6.74834 23.8176C5.18581 23.8176 3.62327 23.8176 2.06074 23.8176C1.12225 23.8176 0.425643 23.3212 0.130551 22.5112C-0.174215 21.6593 0.0386377 20.8493 0.783623 20.1177C2.42356 18.5082 3.23143 16.5067 3.24111 14.1132C3.24594 12.8225 3.21692 11.5212 3.28948 10.2357C3.53136 6.06024 7.14019 2.61641 11.0006 2.82545C11.1505 2.83067 11.2957 2.86203 11.4892 2.89338C9.22034 8.55818 12.9695 14.4529 18.1892 14.5418C18.5327 15.6862 18.7503 16.8411 19.2196 17.8602C19.6066 18.7015 20.2452 19.4279 20.8498 20.1282C21.5126 20.8807 21.7787 21.6646 21.4884 22.4902Z" fill="#14EFC5"/>
<path d="M12.9695 6.264C13.013 2.99786 15.456 0.452877 18.4891 0.499909C21.4497 0.546942 23.8008 3.21734 23.7524 6.48348C23.7089 9.63466 21.232 12.2214 18.3101 12.1744C15.3205 12.1274 12.9211 9.47266 12.9695 6.264Z" fill="white"/>
</svg>
