<svg width="1280" height="754" viewBox="0 0 1280 754" fill="none" xmlns="http://www.w3.org/2000/svg">
<path d="M1280 0.0407744V754C1225.83 740.655 1161.99 728.3 1090.68 717.915C1044.97 711.251 996.193 705.397 944.933 700.603C850.467 691.772 747.58 686.553 639.92 686.553C455.48 686.553 285.04 701.873 146.993 724.427C127.84 727.555 109.313 730.823 91.46 734.207C58.5933 740.434 28 747.063 0 753.959V0C40.6467 10.013 86.7467 19.4669 137.367 27.9538C159.553 31.6759 182.613 35.2116 206.46 38.526C332.787 56.0881 481.24 67.4467 640.08 67.4467C709.993 67.4467 777.893 65.2449 842.78 61.2839C933.207 55.7619 1017.78 46.8206 1093.79 35.6543C1116.77 32.2817 1138.95 28.6993 1160.29 24.9481C1204.01 17.2709 1244.13 8.87134 1280 0.0407744Z" fill="url(#paint0_diamond_1_1508)"/>
<path d="M0 0C40.65 10.013 86.75 19.4669 137.37 27.9509C159.56 31.673 182.62 35.2116 206.46 38.5231C332.79 56.0852 481.24 67.4438 640.08 67.4438C709.99 67.4438 777.89 65.242 842.78 61.284C933.21 55.7619 1017.78 46.8236 1093.79 35.6572C1116.77 32.2846 1138.95 28.7023 1160.29 24.9539C1204.01 17.2738 1244.13 8.87717 1280 0.0436869V0H0Z" fill="#E9EFFD"/>
<g filter="url(#filter0_f_1_1508)">
<path d="M1280 0.0454102V342.679C1204.05 370.3 1118.3 371.867 1081.68 337.104C1031.04 289.037 1104.17 199.788 1047.25 151.144C998.187 109.21 914.553 150.52 865.72 101.923C854.22 90.4772 846.713 76.1013 842.78 61.2886C1016.53 50.6814 1168.69 27.4458 1280 0.0454102Z" fill="white" fill-opacity="0.15"/>
</g>
<path d="M1280 0.0454102V274.859C1218.99 276.997 1154.89 254.006 1144.28 222.248C1130.4 180.705 1210.59 131.805 1191.23 104.655C1176.86 84.5125 1127.29 103.84 1103.59 80.0448C1092.29 68.692 1091.13 51.8114 1093.79 35.6589C1163.85 25.3663 1226.62 13.1864 1280 0.0454102Z" fill="white" fill-opacity="0.1"/>
<path d="M1280 0.0454102V131.403C1265.15 129.487 1253.44 125.031 1247.57 118.332C1232.01 100.589 1257.58 67.2416 1238.17 52.6968C1222.47 40.9247 1199.33 57.9625 1178.71 47.2272C1170.29 42.8469 1164.14 34.8085 1160.29 24.9527C1204.01 17.2755 1244.13 8.87598 1280 0.0454102Z" fill="white" fill-opacity="0.1"/>
<g filter="url(#filter1_f_1_1508)">
<path d="M202.187 96.4489C173.38 133.303 74.32 137.217 0 100.928V0C58.4667 14.3992 128.22 27.6508 206.46 38.526C213.093 58.4763 214.927 80.1508 202.187 96.4489Z" fill="white" fill-opacity="0.15"/>
</g>
<path d="M139.587 77.3025C126.06 87.2048 102.2 59.5248 51.9533 58.1618C30.4467 57.5793 13.8867 62.082 0 67.3535V0C40.6467 10.013 86.7467 19.4669 137.367 27.9538C147.633 49.5933 148.993 70.4174 139.587 77.3025Z" fill="white" fill-opacity="0.1"/>
<g filter="url(#filter2_f_1_1508)">
<path d="M146.993 724.426C92.5867 733.309 43.2133 743.317 0 753.959V614.19C19 604.078 40.12 598.876 61.34 602.365C113.3 610.905 153.307 669.492 146.993 724.426Z" fill="white" fill-opacity="0.15"/>
</g>
<path d="M91.46 734.207C58.5933 740.434 28 747.062 0 753.959V656.671C28.38 648.441 57.6867 649.705 67.6 659.794C80.28 672.69 57.36 696.042 73.86 719.959C78.7867 727.095 85.12 731.236 91.46 734.207Z" fill="white" fill-opacity="0.1"/>
<g filter="url(#filter3_f_1_1508)">
<path d="M1280 531.075V754C1191.11 732.104 1076.15 712.87 944.933 700.603C943.627 677.239 950 652.513 969.007 640.653C1022.19 607.445 1132.01 701.419 1175.58 670.733C1211.4 645.511 1157.16 567.947 1197.49 536.731C1216.08 522.343 1249.17 522.134 1280 531.075Z" fill="white" fill-opacity="0.15"/>
</g>
<path d="M1280 647.077V754C1225.83 740.655 1161.99 728.3 1090.68 717.914C1094.57 708.326 1100.83 700.119 1109.85 695.343C1146.62 675.858 1206.43 725.458 1231.91 706.282C1250.66 692.18 1229.19 657.149 1247.57 646.122C1255.28 641.491 1267.37 642.674 1280 647.077Z" fill="white" fill-opacity="0.1"/>
<defs>
<filter id="filter0_f_1_1508" x="792.78" y="-49.9546" width="537.22" height="463.264" filterUnits="userSpaceOnUse" color-interpolation-filters="sRGB">
<feFlood flood-opacity="0" result="BackgroundImageFix"/>
<feBlend mode="normal" in="SourceGraphic" in2="BackgroundImageFix" result="shape"/>
<feGaussianBlur stdDeviation="25" result="effect1_foregroundBlur_1_1508"/>
</filter>
<filter id="filter1_f_1_1508" x="-50" y="-50" width="311.617" height="226.207" filterUnits="userSpaceOnUse" color-interpolation-filters="sRGB">
<feFlood flood-opacity="0" result="BackgroundImageFix"/>
<feBlend mode="normal" in="SourceGraphic" in2="BackgroundImageFix" result="shape"/>
<feGaussianBlur stdDeviation="25" result="effect1_foregroundBlur_1_1508"/>
</filter>
<filter id="filter2_f_1_1508" x="-50" y="551.282" width="247.65" height="252.677" filterUnits="userSpaceOnUse" color-interpolation-filters="sRGB">
<feFlood flood-opacity="0" result="BackgroundImageFix"/>
<feBlend mode="normal" in="SourceGraphic" in2="BackgroundImageFix" result="shape"/>
<feGaussianBlur stdDeviation="25" result="effect1_foregroundBlur_1_1508"/>
</filter>
<filter id="filter3_f_1_1508" x="894.77" y="475.015" width="435.23" height="328.985" filterUnits="userSpaceOnUse" color-interpolation-filters="sRGB">
<feFlood flood-opacity="0" result="BackgroundImageFix"/>
<feBlend mode="normal" in="SourceGraphic" in2="BackgroundImageFix" result="shape"/>
<feGaussianBlur stdDeviation="25" result="effect1_foregroundBlur_1_1508"/>
</filter>
<radialGradient id="paint0_diamond_1_1508" cx="0" cy="0" r="1" gradientUnits="userSpaceOnUse" gradientTransform="translate(640 377) rotate(90) scale(377 640)">
<stop stop-color="#2563EB"/>
<stop offset="1" stop-color="#3A89FF"/>
</radialGradient>
</defs>
</svg>
