<svg width="40" height="50" viewBox="0 0 40 50" fill="none" xmlns="http://www.w3.org/2000/svg">
<rect y="10" width="40" height="40" rx="20" fill="#2563EB"/>
<path fill-rule="evenodd" clip-rule="evenodd" d="M20.0176 21.0013C20.4981 21.0013 20.9785 21.001 21.4589 21.0007L21.4594 21.0007C22.4196 21 23.3794 20.9993 24.3378 21.0013C27.0349 21.0072 28.9925 22.9589 28.9984 25.6502C29.0013 28.5439 29.0013 31.4377 28.9984 34.3286C28.9954 37.0463 27.0437 38.9951 24.3231 38.998C21.4411 39.0009 18.5619 39.0009 15.6799 38.998C12.9592 38.9951 11.0046 37.0463 11.0017 34.3315C10.9987 31.4377 10.9987 28.5439 11.0017 25.6531C11.0046 22.9589 12.9622 21.0072 15.6593 21.0013H20.0176ZM12.5008 31.4313L12.5008 31.4319C12.5001 32.3847 12.4994 33.3376 12.5014 34.2904C12.5043 36.2363 13.7693 37.5041 15.7151 37.5041C18.5737 37.5071 21.4322 37.5071 24.2908 37.5041C26.2366 37.5012 27.5016 36.2363 27.5016 34.2904C27.5045 31.4319 27.5045 28.5733 27.5016 25.7147C27.4986 23.7689 26.2337 22.501 24.2879 22.501C21.4293 22.4981 18.5707 22.4981 15.7122 22.501C13.7693 22.504 12.5043 23.7689 12.4985 25.7147C12.4985 26.4294 12.4992 27.144 12.4999 27.8587C12.5007 28.5733 12.5014 29.2879 12.5014 30.0026C12.5014 30.4788 12.5011 30.9551 12.5008 31.4313ZM19.9854 34.5018C17.5113 34.493 15.5009 32.4709 15.5039 29.9938C15.5068 27.5021 17.5436 25.4858 20.0353 25.5035C22.5094 25.5211 24.5139 27.552 24.4993 30.029C24.4875 32.5031 22.4595 34.5106 19.9854 34.5018ZM20.003 27.0002C18.3624 27.0002 17.0124 28.3474 17.0036 29.9938C16.9948 31.6315 18.3389 32.9874 19.9854 33.0021C21.6319 33.0167 23.0113 31.6403 23.0025 29.9909C22.9937 28.3474 21.6436 27.0002 20.003 27.0002ZM24.8983 26.2546C25.5175 26.237 25.9959 25.7351 25.9901 25.1129C25.9842 24.4878 25.4941 24.0094 24.866 24.0123C24.2467 24.0182 23.7478 24.5142 23.7478 25.1276C23.7478 25.7498 24.282 26.2722 24.8983 26.2546Z" fill="white"/>
</svg>
