<svg width="40" height="50" viewBox="0 0 40 50" fill="none" xmlns="http://www.w3.org/2000/svg">
<rect y="10" width="40" height="40" rx="20" fill="#2563EB"/>
<path fill-rule="evenodd" clip-rule="evenodd" d="M21.755 23.0677C21.1573 23.0458 20.5576 23.0238 19.955 23C19.4894 23.0188 19.0222 23.0375 18.5539 23.0562C16.9766 23.1194 15.3866 23.183 13.8007 23.2534C13.2026 23.2785 12.6502 23.4566 12.1571 23.8149C11.2828 24.4518 10.9678 25.3878 10.913 26.3853C10.8148 28.1819 10.776 29.983 10.7875 31.7818C10.7943 32.6995 10.8902 33.6285 11.066 34.5302C11.3148 35.8177 12.1936 36.5779 13.4925 36.7308C14.2641 36.8198 15.0448 36.8632 15.8232 36.8997C19.2907 37.0595 22.7583 37.0299 26.2235 36.7993C27.0772 36.7422 27.81 36.4226 28.3442 35.7355C28.7916 35.158 28.9856 34.4686 29.0496 33.7609C29.271 31.2682 29.2664 28.7731 29.0518 26.2803C28.8852 24.3719 27.8511 23.3447 25.9587 23.2443C24.5612 23.1705 23.1636 23.1193 21.755 23.0677ZM22.1819 35.8866C21.5453 35.9124 20.9002 35.9387 20.2427 35.9661C19.6881 35.9444 19.1246 35.9227 18.5547 35.9008C17.0858 35.8442 15.574 35.786 14.0609 35.7218C13.7779 35.7081 13.488 35.6511 13.214 35.5712C12.7552 35.4365 12.3785 35.1603 12.2507 34.6832C12.1069 34.1536 11.9699 33.6126 11.9334 33.0693C11.7873 30.8984 11.7805 28.7275 11.9722 26.5588C11.9996 26.2392 12.0818 25.9219 12.1708 25.6115C12.4037 24.792 12.9926 24.3948 13.8121 24.34C17.3846 24.098 20.9572 24.0638 24.5343 24.2487C24.6435 24.2543 24.7526 24.2596 24.8616 24.2649C25.1967 24.2813 25.5309 24.2976 25.8651 24.3217C27.237 24.4199 27.8214 24.9358 27.9561 26.31C28.1958 28.7754 28.1867 31.2476 27.9584 33.7153C27.9242 34.0897 27.7963 34.4686 27.6388 34.8133C27.3421 35.4662 26.7531 35.6922 26.0797 35.7218C24.7926 35.7804 23.5055 35.8327 22.1819 35.8866ZM17.6268 29.2222C17.6275 29.4271 17.6281 29.632 17.6281 29.8367C17.6281 30.0642 17.6273 30.2917 17.6266 30.5192C17.625 30.9743 17.6235 31.4293 17.6281 31.8843C17.6395 32.681 18.1805 33.0006 18.8859 32.624C19.4634 32.3158 20.0394 32.0058 20.6153 31.6958C21.2938 31.3306 21.9721 30.9655 22.6524 30.6037C22.9583 30.4416 23.1935 30.2316 23.198 29.8664C23.2026 29.5011 22.9766 29.2843 22.6707 29.1176C21.9917 28.7505 21.3139 28.3794 20.6361 28.0082C20.0538 27.6893 19.4715 27.3705 18.8882 27.054C18.1851 26.6728 17.6418 26.9878 17.6304 27.7868C17.624 28.2646 17.6254 28.7436 17.6268 29.2222ZM18.7466 31.4734V28.2091C19.7533 28.7615 20.7258 29.2934 21.753 29.855C21.0867 30.2127 20.4408 30.5608 19.7905 30.9111C19.445 31.0973 19.0983 31.2841 18.7466 31.4734Z" fill="white"/>
</svg>
