<svg width="40" height="40" viewBox="0 0 40 40" fill="none" xmlns="http://www.w3.org/2000/svg">
<rect width="40" height="40" rx="20" fill="#2563EB"/>
<path d="M17.5134 21.5974C16.9399 21.5974 16.4266 21.6003 15.9133 21.5974C15.3914 21.5945 15.033 21.2864 15.0186 20.7495C14.9928 19.8166 14.9957 18.8806 15.0158 17.9477C15.0272 17.4225 15.3513 17.1057 15.8646 17.0881C16.3979 17.0675 16.9342 17.0822 17.5134 17.0822C17.5134 16.601 17.5163 16.161 17.5134 15.7238C17.5077 14.6353 17.7314 13.6085 18.3737 12.7195C19.1795 11.6047 20.2864 11.0502 21.6313 11.012C22.4629 10.9886 23.2974 11.0062 24.1318 11.0091C24.6337 11.0091 24.9806 11.3318 24.9892 11.8482C25.0036 12.7137 25.0036 13.5762 24.9892 14.4417C24.9806 14.961 24.6394 15.2896 24.1089 15.3131C23.5497 15.3365 22.9905 15.3424 22.4314 15.3453C22.1532 15.3483 22.0414 15.4891 22.0442 15.759C22.0471 16.1786 22.0442 16.5981 22.0442 17.0793C22.2364 17.0793 22.4113 17.0793 22.5891 17.0793C23.0909 17.0822 23.5927 17.0734 24.0946 17.0998C24.5505 17.1233 24.8573 17.4078 24.8688 17.8714C24.8946 18.8513 24.8946 19.8342 24.8688 20.8141C24.8573 21.2923 24.4989 21.5974 24.0315 21.6003C23.3834 21.6062 22.7353 21.6003 22.0356 21.6003C22.0356 21.7617 22.0356 21.8967 22.0356 22.0316C22.0356 23.9826 22.0356 25.9337 22.0356 27.8847C22.0356 28.6798 21.7317 28.9937 20.9603 28.9966C20.1488 28.9995 19.3401 29.0025 18.5286 28.9966C17.8145 28.9907 17.5134 28.6798 17.5134 27.9434C17.5106 25.9689 17.5134 23.9944 17.5134 22.0199C17.5134 21.8879 17.5134 21.7646 17.5134 21.5974ZM16.0596 20.5412C16.6474 20.5412 17.1951 20.5412 17.7429 20.5412C18.3508 20.5412 18.5458 20.7349 18.5458 21.351C18.5458 23.3959 18.5458 25.4378 18.5458 27.4827C18.5458 27.6206 18.5458 27.7556 18.5458 27.9052C19.3802 27.9052 20.1717 27.9052 21.0033 27.9052C21.0033 27.7468 21.0033 27.6089 21.0033 27.471C21.0033 25.4261 21.0033 23.3841 21.0033 21.3392C21.0033 20.7349 21.1926 20.5412 21.7747 20.5412C22.4572 20.5412 23.1368 20.5412 23.8307 20.5412C23.8307 19.7256 23.8307 18.9511 23.8307 18.1413C23.6874 18.1413 23.5641 18.1413 23.4408 18.1413C22.8586 18.1413 22.2765 18.1501 21.6944 18.1384C21.2126 18.1296 21.009 17.9154 21.0033 17.4284C20.9976 17.0088 21.0004 16.5864 21.0033 16.1668C21.0062 14.7028 21.4449 14.2569 22.893 14.251C23.2429 14.251 23.5899 14.251 23.9426 14.251C23.9426 13.4882 23.9426 12.7841 23.9426 12.0506C23.1712 12.0506 22.4199 12.0271 21.6714 12.0565C20.0513 12.1181 18.8555 13.186 18.6289 14.826C18.5286 15.5478 18.5572 16.293 18.5486 17.0264C18.5372 18.0504 18.4569 18.1413 17.4532 18.1413C16.9915 18.1413 16.5299 18.1413 16.0596 18.1413C16.0596 18.9687 16.0596 19.7344 16.0596 20.5412Z" fill="white"/>
</svg>
