<svg width="40" height="40" viewBox="0 0 40 40" fill="none" xmlns="http://www.w3.org/2000/svg">
<rect width="40" height="40" rx="20" fill="#2563EB"/>
<path d="M18.794 21.9585C17.9415 22.9478 17.1119 23.9144 16.2822 24.878C15.2416 26.084 14.2009 27.29 13.1688 28.5046C13.0234 28.6728 12.8752 28.7555 12.6471 28.7441C12.2764 28.7241 11.9058 28.7384 11.4496 28.7384C13.702 26.1182 15.9059 23.5551 18.124 20.9777C15.9059 17.7475 13.6991 14.5372 11.4639 11.2841C11.6036 11.2755 11.6977 11.2613 11.7917 11.2613C13.2715 11.2613 14.7483 11.267 16.228 11.2556C16.459 11.2527 16.5958 11.3297 16.7241 11.5179C18.0499 13.4623 19.3842 15.401 20.7185 17.3398C20.7869 17.4396 20.861 17.5393 20.9608 17.6733C21.3999 17.1659 21.8218 16.6783 22.2409 16.1908C23.5924 14.6227 24.9438 13.0546 26.2866 11.4808C26.4263 11.3183 26.566 11.247 26.7799 11.2556C27.1534 11.2727 27.5297 11.2613 27.9916 11.2613C25.8476 13.756 23.7492 16.1965 21.628 18.6627C23.9231 22.0041 26.2182 25.3427 28.5504 28.7384C28.3736 28.7384 28.2653 28.7384 28.1569 28.7384C26.7 28.7384 25.246 28.7327 23.7891 28.7441C23.5439 28.7469 23.4042 28.6728 23.2645 28.4704C21.8618 26.4119 20.4505 24.362 19.0392 22.3121C18.9679 22.2066 18.8966 22.1039 18.794 21.9585ZM26.4634 27.6493C26.3665 27.501 26.3066 27.4041 26.2439 27.3157C23.0735 22.7796 19.9059 18.2436 16.7327 13.7103C16.4333 13.2827 16.2109 12.6954 15.7975 12.4815C15.3727 12.2649 14.7569 12.4131 14.2237 12.4046C14.007 12.4017 13.7904 12.4046 13.5166 12.4046C13.6307 12.5728 13.6906 12.6669 13.7561 12.7581C15.3841 15.0874 17.0092 17.4139 18.6372 19.7432C20.4134 22.2864 22.1896 24.8296 23.9744 27.367C24.0599 27.4896 24.2196 27.6322 24.3507 27.635C25.0322 27.6635 25.7164 27.6493 26.4634 27.6493Z" fill="white"/>
</svg>
