<svg width="20" height="20" viewBox="0 0 20 20" fill="none" xmlns="http://www.w3.org/2000/svg">
<path d="M9.09478 2.92837C9.45471 2.16162 10.5453 2.16162 10.9052 2.92838L12.5545 6.4418C12.6961 6.74338 12.9785 6.95465 13.3078 7.00526L17.0777 7.58468C17.882 7.70829 18.2098 8.68948 17.6413 9.27168L14.8527 12.1277C14.6309 12.3549 14.5302 12.6739 14.5813 12.9873L15.2304 16.9672C15.3648 17.7911 14.4901 18.4073 13.7596 18.0033L10.4839 16.1919C10.1828 16.0254 9.8172 16.0254 9.51608 16.1919L6.24045 18.0033C5.50989 18.4073 4.63518 17.7911 4.76957 16.9672L5.41872 12.9873C5.46983 12.6739 5.36909 12.3549 5.14727 12.1277L2.35869 9.27168C1.79024 8.68948 2.11804 7.70829 2.92229 7.58468L6.69218 7.00526C7.02147 6.95465 7.30392 6.74338 7.44549 6.4418L9.09478 2.92837Z" fill="white"/>
</svg>
