<svg width="21" height="20" viewBox="0 0 21 20" fill="none" xmlns="http://www.w3.org/2000/svg">
<path d="M10.3333 3.57153C7.97619 3.57153 6.04762 5.5001 6.04762 7.85725C6.04762 10.2144 7.97619 12.143 10.3333 12.143C12.6905 12.143 14.6191 10.2144 14.6191 7.85725C14.6191 5.5001 12.6905 3.57153 10.3333 3.57153ZM10.3333 10.7144C8.76191 10.7144 7.47619 9.42868 7.47619 7.85725C7.47619 6.28582 8.76191 5.0001 10.3333 5.0001C11.9048 5.0001 13.1905 6.28582 13.1905 7.85725C13.1905 9.42868 11.9048 10.7144 10.3333 10.7144Z" fill="#6D96F2"/>
<path d="M10.3333 0C4.81906 0 0.333344 4.48571 0.333344 10C0.333344 15.5143 4.81906 20 10.3333 20C15.8476 20 20.3333 15.5143 20.3333 10C20.3333 4.48571 15.8476 0 10.3333 0ZM10.3333 18.5714C8.40477 18.5714 6.63334 17.9286 5.20477 16.8571C5.73334 16.1429 6.40477 15.5429 7.19049 15.1143C9.10477 14.0429 11.5619 14.0429 13.4905 15.1143C14.2619 15.5429 14.9333 16.1429 15.4762 16.8571C14.0333 17.9286 12.2619 18.5714 10.3333 18.5714ZM16.5333 15.9C15.8905 15.0857 15.0762 14.4143 14.1905 13.8571C11.7619 12.3714 8.60477 12 6.49049 13.8714C5.70477 14.5571 4.83334 15.1571 4.16192 15.9286C2.6762 14.3857 1.76191 12.3 1.76191 10C1.76191 5.27143 5.60477 1.42857 10.3333 1.42857C15.0619 1.42857 18.9048 5.27143 18.9048 10C18.9048 12.2857 17.9905 14.3714 16.5333 15.9Z" fill="#6D96F2"/>
</svg>
