<svg width="101" height="100" viewBox="0 0 101 100" fill="none" xmlns="http://www.w3.org/2000/svg">
<rect x="0.5" width="100" height="100" rx="50" fill="#F2E9FC"/>
<path fill-rule="evenodd" clip-rule="evenodd" d="M42.1276 30.9026C37.9318 34.9096 36.4559 43.3785 43.2345 49.0329L43.1892 49.0504C42.9458 49.1447 42.7603 49.2166 42.5823 49.2732C34.8772 52.3278 30.055 57.8793 28.1501 65.9363C27.3521 69.3256 29.8319 72.4574 33.2984 72.4746C39.4255 72.504 45.559 72.4956 51.6879 72.4872C52.7085 72.4858 53.729 72.4844 54.7493 72.4832C55.9678 72.4746 56.7228 71.771 56.7228 70.7156C56.7228 69.6602 55.9592 68.9738 54.7408 68.9652C53.6082 68.9595 52.4755 68.9614 51.3429 68.9633C50.7766 68.9642 50.2103 68.9652 49.644 68.9652C47.8647 68.9652 46.0863 68.9661 44.3083 68.9671C40.7531 68.969 37.1993 68.9709 33.6416 68.9652C32.1143 68.9652 31.2648 67.9956 31.5994 66.6142C33.2984 59.6555 37.5199 54.8848 44.2469 52.4651C49.0605 50.7404 53.857 51.0493 58.5333 53.1258C59.7174 53.6492 60.7299 53.3403 61.1589 52.3707C61.5879 51.3925 61.1417 50.4487 59.9662 49.9253C59.4271 49.682 58.878 49.4539 58.3187 49.2216C58.1481 49.1507 57.9765 49.0794 57.804 49.0072C64.6769 43.2583 62.9436 34.6951 58.8079 30.8339C54.0114 26.3635 46.8468 26.3893 42.1276 30.9026ZM42.0675 39.38C42.0933 34.7466 45.9287 30.9712 50.5793 31.0055C55.2127 31.0398 58.9709 34.8839 58.9366 39.5344C58.8937 44.1679 55.0582 47.9089 50.3819 47.866C45.7914 47.8231 42.0418 43.9962 42.0675 39.38ZM58.7651 65.9106H62.8408C62.8486 66.1023 62.8582 66.2726 62.8671 66.4313C62.8778 66.6206 62.8876 66.7933 62.8922 66.966C62.8953 67.404 62.8929 67.8432 62.8905 68.2826C62.8862 69.0741 62.8818 69.8666 62.9094 70.6555C62.9437 71.7624 63.6473 72.4832 64.6255 72.5003C65.638 72.5175 66.3501 71.7796 66.4102 70.6298C66.4286 70.3109 66.4251 69.9963 66.4216 69.6831C66.4202 69.5581 66.4188 69.4332 66.4188 69.3084V65.9106H67.4913C67.8559 65.9082 68.2212 65.9091 68.5867 65.91C69.5374 65.9125 70.4901 65.9149 71.4383 65.8591C72.365 65.8076 72.9914 65.0525 72.9999 64.1602C73.0085 63.2764 72.3822 62.5471 71.4555 62.4355C71.0271 62.3863 70.5929 62.3889 70.1624 62.3915C70.0669 62.392 69.9717 62.3926 69.8767 62.3926H66.4102V61.2943C66.4102 60.9339 66.4125 60.5736 66.4148 60.2132C66.4202 59.3723 66.4257 58.5314 66.4016 57.6906C66.3673 56.5408 65.638 55.7943 64.6341 55.8029C63.6302 55.8114 62.9266 56.5494 62.8922 57.7163C62.8739 58.4272 62.8774 59.1382 62.8809 59.8491C62.8823 60.1335 62.8837 60.4179 62.8837 60.7023V62.384H58.7822C57.1262 62.384 56.2768 62.9932 56.3025 64.1773C56.3282 65.3357 57.1434 65.9106 58.7651 65.9106Z" fill="#9748E7"/>
</svg>
