<svg width="101" height="100" viewBox="0 0 101 100" fill="none" xmlns="http://www.w3.org/2000/svg">
<rect x="0.5" width="100" height="100" rx="50" fill="#FFEFFA"/>
<path fill-rule="evenodd" clip-rule="evenodd" d="M32.6617 72.4167H50.4999C56.5055 72.4167 62.511 72.4167 68.5166 72.4048C71.4539 72.4048 72.9999 70.847 72.9999 67.8977V32.138C72.9999 29.1293 71.4777 27.5833 68.469 27.5833H32.5309C29.5222 27.5833 28 29.1293 28 32.138V67.7312C28 70.9302 29.4746 72.4167 32.6617 72.4167ZM30.6401 41.7112V40.8193C43.9236 40.8193 57.0882 40.8193 70.3598 40.8074V41.7825V67.8739C70.3598 69.3604 69.9674 69.7648 68.5047 69.7648H32.4952C31.0444 69.7648 30.6401 69.3723 30.6401 67.9691V41.7112ZM70.3598 38.0603H30.6519C30.6519 37.4215 30.65 36.7875 30.648 36.1571L30.648 36.1569V36.1569V36.1569V36.1569V36.1569V36.1568V36.1568C30.6432 34.5928 30.6384 33.0502 30.6638 31.5077C30.6757 30.7704 31.1395 30.3423 31.8768 30.259C32.1144 30.2305 32.3444 30.2324 32.5789 30.2343H32.5789H32.5789H32.5789H32.5789H32.5789H32.579H32.579C32.6379 30.2348 32.6972 30.2353 32.7569 30.2353H68.2311C70.0744 30.2353 70.3598 30.5207 70.3598 32.3758V38.0603ZM55.6136 46.6939C56.0298 45.6831 55.459 44.7436 54.3649 44.7317C53.7108 44.7674 53.3541 45.2431 53.0925 45.8852C51.5347 49.5478 49.965 53.1984 48.3954 56.8491L48.3951 56.8498C48.0251 57.7175 47.6534 58.5836 47.282 59.4493C46.6506 60.9208 46.0197 62.3911 45.3982 63.8662C45.0534 64.6867 45.315 65.3884 46.0285 65.7095C46.7183 66.0187 47.4199 65.7095 47.8123 64.9127C47.8574 64.8301 47.8929 64.7428 47.928 64.6568C47.9485 64.6065 47.9688 64.5566 47.9907 64.5083C49.7151 60.5007 51.4276 56.5049 53.14 52.4973C53.9725 50.5707 54.8049 48.6323 55.6136 46.6939ZM39.7069 56.5458L39.7076 56.5463L39.7079 56.5466C40.8584 57.463 41.9744 58.3519 43.0792 59.252L43.1221 59.2877C43.4034 59.5214 43.7689 59.825 43.7689 60.0964C43.7808 60.5958 43.6619 61.2142 43.3408 61.5591C42.877 62.0586 42.2111 61.9396 41.6759 61.4996L41.6755 61.4993C40.4388 60.5124 39.2022 59.5254 37.9775 58.5385C37.7184 58.3312 37.4583 58.125 37.1984 57.9188C36.5635 57.4153 35.9296 56.9126 35.3136 56.3979C34.4336 55.6725 34.4336 54.84 35.3255 54.1146C37.4181 52.4263 39.5225 50.7499 41.627 49.0734L41.6276 49.073L41.6283 49.0723C42.33 48.5253 43.103 48.5729 43.5905 49.1318C44.09 49.7264 43.983 50.547 43.2695 51.1297C41.8228 52.3199 40.3672 53.4835 38.8494 54.6969L38.1202 55.28C38.6565 55.7091 39.1836 56.1289 39.7036 56.5431L39.7037 56.5432L39.7069 56.5458ZM58.6556 51.8898L58.6564 51.8904C60.0315 52.9993 61.4223 54.1207 62.8796 55.2802C61.1434 56.6597 59.4785 57.9916 57.8373 59.3235C57.0525 59.9538 56.8979 60.7387 57.3973 61.369C57.8968 61.9993 58.6936 62.0112 59.4903 61.3809C61.5358 59.7635 63.5694 58.1462 65.591 56.5051C66.6137 55.6845 66.6137 54.8759 65.591 54.0553C64.6317 53.2784 63.6724 52.512 62.7132 51.7456L62.7099 51.743C62.2313 51.3607 61.7527 50.9783 61.2742 50.5947C61.0636 50.4277 60.8553 50.2585 60.6471 50.0894L60.647 50.0894C60.1734 49.7046 59.7006 49.3207 59.2049 48.9655C58.5984 48.5254 57.8254 48.6444 57.3973 49.1795C56.9692 49.7147 57.0287 50.4758 57.5638 50.999C57.6907 51.1179 57.8281 51.2263 57.9655 51.3346C58.0342 51.3888 58.1029 51.443 58.1703 51.4985L58.6556 51.8898ZM62.3684 32.8633C62.7763 32.8633 63.1855 32.862 63.5951 32.8607C64.4156 32.8581 65.238 32.8554 66.055 32.8633C67.042 32.8752 67.601 33.3509 67.6248 34.1358C67.6485 34.9683 67.0777 35.4915 66.055 35.4915C63.5933 35.5034 61.1435 35.5034 58.6819 35.4915C57.6591 35.4796 57.0883 34.9564 57.1121 34.1239C57.1359 33.339 57.6948 32.8633 58.6819 32.8515C59.2943 32.8515 59.9097 32.8544 60.5251 32.8574C61.1406 32.8604 61.756 32.8633 62.3684 32.8633ZM34.624 35.4798C35.3732 35.5155 35.9797 34.9446 35.9797 34.1954C35.9915 33.4819 35.4564 32.9111 34.731 32.8754C33.9937 32.8397 33.3872 33.4105 33.3753 34.1597C33.3753 34.8733 33.9104 35.4441 34.624 35.4798ZM41.2596 34.219C41.2358 34.9682 40.6174 35.5271 39.8682 35.4796C39.1547 35.432 38.6314 34.8493 38.6552 34.1358C38.679 33.3865 39.2974 32.8276 40.0466 32.8752C40.7482 32.9228 41.2834 33.5055 41.2596 34.219ZM45.2198 35.4796C45.969 35.4796 46.5517 34.885 46.528 34.1358C46.5042 33.4223 45.9452 32.8753 45.2198 32.8753C44.4706 32.8753 43.8879 33.4699 43.9117 34.2191C43.9355 34.9326 44.5063 35.4796 45.2198 35.4796Z" fill="#FF77D9"/>
</svg>
