<svg width="101" height="100" viewBox="0 0 101 100" fill="none" xmlns="http://www.w3.org/2000/svg">
<rect x="0.5" width="100" height="100" rx="50" fill="#FFF0C6"/>
<path d="M63.1765 67.2239C61.3298 67.2239 59.4832 67.234 57.6467 67.2137C57.1698 67.2036 56.9466 67.3152 56.7842 67.8225C55.8508 70.7041 53.375 72.5 50.4732 72.5C47.622 72.4899 45.126 70.6736 44.223 67.8631C44.0505 67.305 43.7867 67.2239 43.2895 67.2239C39.718 67.234 36.1464 67.2239 32.5749 67.234C31.8646 67.234 31.195 67.1934 30.8601 66.4629C30.5354 65.7323 30.9007 65.1946 31.3877 64.6568C35.1013 60.578 36.8668 55.7584 36.8871 50.2489C36.8871 48.179 36.7958 46.0584 37.1408 44.0393C38.0134 39.0067 40.9964 35.5569 45.7348 33.6696C46.3537 33.4261 46.5871 33.142 46.5566 32.4724C46.5262 31.752 46.5465 30.991 46.7393 30.301C47.2466 28.4848 49.0425 27.3281 50.9095 27.5209C52.746 27.7137 54.41 29.1748 54.339 31.0214C54.2679 32.8884 55.0898 33.5479 56.6422 34.319C61.1573 36.5817 63.6635 40.3967 64.0389 45.4598C64.2013 47.5905 64.0694 49.7314 64.181 51.8622C64.4346 56.6817 66.2509 60.8722 69.447 64.4843C69.7108 64.7887 70.0152 65.1033 70.1572 65.4685C70.5022 66.3614 69.8427 67.1934 68.7875 67.2036C66.9307 67.234 65.0536 67.2239 63.1765 67.2239ZM66.0175 64.5351C65.8348 64.2408 65.7131 64.048 65.5913 63.8654C63.1055 60.2025 61.6951 56.1643 61.5226 51.7201C61.4414 49.6706 61.5328 47.621 61.411 45.5815C61.0863 40.1938 56.6929 35.8207 51.3153 35.4351C45.8363 35.0394 40.763 38.7834 39.8093 44.1509C39.4541 46.1193 39.5353 48.1689 39.5353 50.1779C39.5353 55.2714 38.1656 59.9286 35.2332 64.1089C35.1521 64.2205 35.1013 64.3524 34.9999 64.5351C45.3594 64.5351 55.6174 64.5351 66.0175 64.5351ZM46.8712 67.2442C47.4292 68.8879 48.9309 69.9025 50.6457 69.8416C52.2691 69.7909 53.6997 68.7154 54.0954 67.2442C51.7009 67.2442 49.3266 67.2442 46.8712 67.2442ZM51.7922 32.7565C51.7516 31.823 52.1067 30.8084 51.0819 30.3518C50.6964 30.1793 49.9963 30.2706 49.6614 30.5243C48.9106 31.1026 49.2049 31.965 49.2353 32.7565C50.1282 32.7565 50.9095 32.7565 51.7922 32.7565Z" fill="#FDC936"/>
<path d="M70.2586 45.3685C70.2586 45.6932 70.2688 46.0077 70.2586 46.3324C70.218 47.1542 69.6904 47.7022 68.9599 47.7123C68.2598 47.7224 67.7322 47.2354 67.6408 46.444C67.5089 45.2873 67.4887 44.1002 67.2654 42.9638C66.6262 39.656 65.0637 36.815 62.73 34.4103C62.1922 33.8523 62.0502 33.2435 62.4966 32.5941C62.872 32.0462 63.4504 31.9143 64.0592 32.168C64.3433 32.2897 64.5868 32.5333 64.7998 32.7666C68.1482 36.2976 69.9441 40.5083 70.2586 45.3685Z" fill="#FDC936"/>
<path d="M30.7687 45.3379C31.0528 40.4676 32.869 36.267 36.2275 32.7259C36.9682 31.9447 37.7698 31.833 38.3583 32.4012C38.9468 32.9694 38.8656 33.7609 38.1249 34.5523C35.1824 37.6875 33.5793 41.3808 33.3967 45.6931C33.3358 47.1237 32.8995 47.7426 31.9965 47.7122C31.0833 47.6818 30.6876 47.0121 30.7484 45.6017C30.7586 45.5104 30.7687 45.4191 30.7687 45.3379Z" fill="#FDC936"/>
</svg>
