<svg width="101" height="100" viewBox="0 0 101 100" fill="none" xmlns="http://www.w3.org/2000/svg">
<rect x="0.5" width="100" height="100" rx="50" fill="#EEF9FF"/>
<path d="M45.0264 69.7378C42.8418 69.1309 42.2349 68.212 42.6771 66.166C41.4894 65.9146 40.4924 66.2701 39.5995 67.0243C38.1777 68.2206 37.1201 68.186 35.8197 66.8942C34.9441 66.0186 34.0511 65.1517 33.1929 64.2588C32.1526 63.1838 32.1179 61.9961 33.1149 60.8691C34.2332 59.5947 34.554 58.173 33.8864 56.6125C33.2102 55.0433 31.9619 54.3065 30.2627 54.2371C28.9623 54.1764 28.0607 53.2575 28.026 51.9571C27.9913 50.5093 27.9913 49.0616 28.026 47.6225C28.0607 46.2874 28.9276 45.4725 30.358 45.3424C33.1495 45.0824 34.8834 42.6723 34.0078 40.2016C33.8171 39.6641 33.453 39.1613 33.0889 38.7104C32.1526 37.5574 32.1612 36.3871 33.2016 35.3121C34.1292 34.3585 35.0655 33.4222 36.0191 32.4946C37.0941 31.4456 38.2818 31.4023 39.4088 32.3992C40.6831 33.5176 42.0962 33.8557 43.6654 33.1795C45.2345 32.5119 45.9627 31.2549 46.0581 29.5644C46.1361 28.2033 47.0464 27.345 48.4161 27.3277C49.8032 27.3104 51.1903 27.3104 52.5774 27.3277C53.9558 27.345 54.8661 28.2033 54.9441 29.5644C55.0308 31.2549 55.7677 32.5119 57.3281 33.1881C58.9406 33.8817 60.3624 33.5089 61.6541 32.3559C62.6944 31.4283 63.9081 31.4803 64.9137 32.4426C65.9107 33.4049 66.8903 34.3845 67.8526 35.3815C68.8409 36.4131 68.8669 37.6181 67.9046 38.7018C66.795 39.9415 66.4655 41.3372 67.0811 42.8804C67.7139 44.4582 68.9536 45.2297 70.6441 45.3598C72.1873 45.4725 72.9762 46.3394 72.9935 47.8912C73.0022 49.1569 73.0022 50.4313 72.9935 51.697C72.9762 53.2835 72.1439 54.1678 70.5834 54.2631C68.9623 54.3671 67.7746 55.13 67.1331 56.6212C66.4915 58.1123 66.7343 59.4994 67.7833 60.7477C68.945 62.1175 68.9016 63.1925 67.6446 64.4668C66.8123 65.3078 65.9801 66.14 65.1391 66.9723C63.9081 68.186 62.7984 68.2206 61.4894 67.1023C60.5964 66.3307 59.5821 65.958 58.5938 66.1227C58.4205 66.9983 58.4638 67.8912 58.0563 68.5067C57.6489 69.1222 56.808 69.4517 56.0191 69.9978C55.863 71.9831 55.1088 72.6853 52.8635 72.6853C51.2076 72.6853 49.5605 72.6853 47.9046 72.6853C45.9367 72.668 45.0351 71.7577 45.0264 69.7378ZM42.4083 64.2935C42.5384 63.834 42.5384 63.3658 42.7724 63.1231C43.4573 62.4382 43.1452 61.7794 42.8505 61.1032C41.7234 58.5111 40.5878 55.9189 39.4608 53.3268C38.6372 51.4369 38.3858 49.4603 38.6892 47.4404C39.4521 42.3515 43.6047 38.199 48.5982 37.4447C53.8951 36.6472 59.0013 39.3346 61.29 44.1548C62.7551 47.2323 62.8071 50.3533 61.472 53.4916C60.3277 56.1704 59.14 58.8405 57.9957 61.5193C57.8656 61.8314 57.8136 62.2648 57.9176 62.5856C58.091 63.1578 58.4031 63.6866 58.6979 64.3021C60.215 64.2674 61.6107 64.7789 62.7811 65.8973C63.1972 66.2961 63.518 66.0793 63.8388 65.7499C64.6883 64.8916 65.5379 64.0247 66.4049 63.1838C66.8643 62.7503 66.873 62.4122 66.4482 61.9181C64.9137 60.1582 64.567 58.1383 65.4599 55.9796C66.3528 53.821 68.052 52.668 70.3754 52.5033C71.0516 52.4599 71.225 52.1565 71.2163 51.5496C71.1903 50.4313 71.173 49.3043 71.225 48.186C71.251 47.4491 71.0256 47.1456 70.2453 47.085C67.9567 46.8942 66.3008 45.7152 65.4426 43.5826C64.567 41.4239 64.9311 39.4127 66.4829 37.6528C66.8903 37.1933 66.873 36.8639 66.4395 36.4564C65.5639 35.6155 64.7143 34.7573 63.8734 33.8903C63.4746 33.4742 63.1452 33.3875 62.6771 33.8036C60.8912 35.3728 58.8626 35.7542 56.6693 34.8353C54.5106 33.9337 53.3749 32.2345 53.2016 29.9111C53.1582 29.3043 52.9241 29.0789 52.326 29.0962C51.1123 29.1222 49.9072 29.1222 48.6935 29.0962C48.1127 29.0876 47.8526 29.2783 47.8093 29.9025C47.6359 32.2605 46.4742 33.977 44.2722 34.87C42.1049 35.7456 40.1023 35.3554 38.3424 33.821C37.8743 33.4135 37.5449 33.4655 37.1461 33.8817C36.3052 34.7573 35.4556 35.6155 34.58 36.4478C34.1032 36.8986 34.2072 37.228 34.5626 37.7222C35.0568 38.407 35.5423 39.1526 35.7763 39.9415C36.782 43.3572 34.4586 46.6602 30.7655 47.085C30.0026 47.1717 29.7425 47.4317 29.7772 48.1773C29.8205 49.2956 29.8119 50.4226 29.7772 51.541C29.7685 52.2085 30.0199 52.4512 30.7048 52.5033C32.9502 52.6766 34.606 53.795 35.4989 55.8843C36.4439 58.0603 36.0971 60.0975 34.5626 61.9094C34.2419 62.2909 34.0251 62.6116 34.4586 63.0451C35.4036 63.9814 36.3225 64.9436 37.3021 65.8366C37.4755 65.9926 38.0217 66.0186 38.1864 65.8713C39.4001 64.7963 40.7785 64.2501 42.4083 64.2935ZM47.8093 52.5206C47.1938 52.5206 46.6649 52.5379 46.1448 52.5206C44.2809 52.4339 42.8591 50.9341 42.9025 49.1049C42.9371 47.293 44.4629 45.7932 46.2748 45.7932C48.0954 45.7846 49.5778 47.241 49.6385 49.0962C49.6558 49.6164 49.6385 50.1452 49.6385 50.6914C50.2627 50.6914 50.7742 50.6914 51.3723 50.6914C51.3723 50.1019 51.355 49.5817 51.3723 49.0529C51.4417 47.215 52.9675 45.7586 54.7707 45.7932C56.5566 45.8279 58.0303 47.2844 58.0997 49.0616C58.1691 50.8734 56.7473 52.4166 54.9007 52.5119C54.3459 52.5379 53.7911 52.5206 53.2016 52.5206C53.2016 55.6415 53.2016 58.6671 53.2016 61.736C54.0338 61.736 54.7967 61.7707 55.5596 61.7187C55.7763 61.7013 56.0798 61.4673 56.1665 61.2592C57.3888 58.485 58.6112 55.7022 59.7642 52.902C60.1283 52.0091 60.4404 51.0555 60.5531 50.1105C61.0299 45.9926 58.7412 41.9788 54.9528 40.1149C51.1643 38.251 46.6303 38.9445 43.5353 41.8574C40.3971 44.8049 39.5301 48.9662 41.2293 52.9541C42.417 55.7456 43.6134 58.5371 44.8357 61.3112C44.9224 61.502 45.1912 61.71 45.3906 61.7274C46.1795 61.7707 46.9684 61.7447 47.8093 61.7447C47.8093 58.6498 47.8093 55.6502 47.8093 52.5206ZM50.5921 63.5219C48.8236 63.5219 47.055 63.5219 45.2778 63.5219C44.8184 63.5219 44.3156 63.5479 44.3156 64.1634C44.3156 64.7789 44.8184 64.8049 45.2778 64.8049C48.7629 64.8049 52.2393 64.8049 55.7243 64.8049C56.1838 64.8049 56.6866 64.7789 56.6866 64.1634C56.6866 63.5479 56.1838 63.5219 55.7243 63.5219C54.0165 63.5219 52.3086 63.5219 50.5921 63.5219ZM51.3117 61.6927C51.3117 58.5891 51.3117 55.6069 51.3117 52.5899C50.7395 52.5899 50.228 52.5899 49.7165 52.5899C49.7165 55.6589 49.7165 58.6671 49.7165 61.6927C50.28 61.6927 50.7655 61.6927 51.3117 61.6927ZM50.5921 66.5908C48.8236 66.5908 47.055 66.5908 45.2778 66.5908C44.827 66.5908 44.3069 66.5821 44.3156 67.215C44.3242 67.8132 44.801 67.8652 45.2778 67.8652C48.7629 67.8652 52.2393 67.8652 55.7243 67.8652C56.1925 67.8652 56.6779 67.8218 56.6866 67.2237C56.6953 66.5908 56.1838 66.5995 55.7243 66.5995C54.0165 66.5908 52.3086 66.5908 50.5921 66.5908ZM50.4707 70.8908C51.4157 70.8908 52.3606 70.9428 53.2969 70.8648C53.609 70.8388 53.8864 70.466 54.1812 70.2492C53.9038 70.0498 53.635 69.6771 53.3576 69.6684C51.4417 69.6164 49.5258 69.6164 47.6099 69.6684C47.3411 69.6771 47.0811 70.0672 46.8123 70.2753C47.0897 70.4833 47.3498 70.8388 47.6359 70.8648C48.5808 70.9428 49.5258 70.8908 50.4707 70.8908ZM47.844 50.7261C47.844 50.0672 47.896 49.4863 47.8353 48.9055C47.7486 48.1166 47.003 47.5358 46.2141 47.5704C45.3992 47.6138 44.7143 48.3073 44.6797 49.1222C44.6537 49.9111 45.2345 50.6307 46.0407 50.7087C46.6129 50.7694 47.1938 50.7261 47.844 50.7261ZM53.1495 50.7347C53.8084 50.7347 54.3372 50.7694 54.8661 50.7261C55.7243 50.6567 56.3398 49.9545 56.3225 49.1396C56.3052 48.3333 55.6203 47.6225 54.8054 47.5791C53.9558 47.5271 53.2189 48.186 53.1582 49.0702C53.1235 49.5904 53.1495 50.1192 53.1495 50.7347Z" fill="#24ABF5"/>
</svg>
