<svg width="21" height="20" viewBox="0 0 21 20" fill="none" xmlns="http://www.w3.org/2000/svg">
<path d="M9.76143 2.92837C10.1214 2.16162 11.2119 2.16162 11.5719 2.92838L13.2212 6.4418C13.3627 6.74338 13.6452 6.95465 13.9745 7.00526L17.7444 7.58468C18.5486 7.70829 18.8764 8.68948 18.308 9.27168L15.5194 12.1277C15.2976 12.3549 15.1968 12.6739 15.2479 12.9873L15.8971 16.9672C16.0315 17.7911 15.1568 18.4073 14.4262 18.0033L11.1506 16.1919C10.8495 16.0254 10.4839 16.0254 10.1827 16.1919L6.90711 18.0033C6.17654 18.4073 5.30183 17.7911 5.43622 16.9672L6.08538 12.9873C6.13649 12.6739 6.03574 12.3549 5.81392 12.1277L3.02535 9.27168C2.4569 8.68948 2.78469 7.70829 3.58894 7.58468L7.35884 7.00526C7.68812 6.95465 7.97058 6.74338 8.11215 6.4418L9.76143 2.92837Z" fill="#ED9501"/>
</svg>
